<?xml version="1.0" encoding="UTF-8"?>
<svg id="_レイヤー_2" data-name="レイヤー 2" xmlns="http://www.w3.org/2000/svg" viewBox="0 0 321.27 113.78">
  <defs>
    <style>
      .cls-1 {
        fill: #002029;
      }

      .cls-1, .cls-2, .cls-3, .cls-4, .cls-5, .cls-6, .cls-7, .cls-8, .cls-9 {
        stroke-width: 0px;
      }

      .cls-2 {
        fill: #ddd;
      }

      .cls-3 {
        fill: #c1c1c0;
      }

      .cls-4 {
        fill: #f5e928;
      }

      .cls-5 {
        fill: #595757;
      }

      .cls-6 {
        fill: #00212a;
      }

      .cls-7 {
        fill: #fff100;
      }

      .cls-8 {
        fill: #b5b5b6;
      }

      .cls-9 {
        fill: #fff;
      }
    </style>
  </defs>
  <g id="_ロゴマーク" data-name="ロゴマーク">
    <g>
      <g>
        <path class="cls-1" d="M97.34,3.07l.15-.2h3.67l.17.2-.05,4.67,5.3-1.52,2.47-.88,2.25,2.1c.27.25.4.4.4.6,0,.15-.05.3-.18.55-1.2,2.3-2.62,4.52-4,6.27-.32.4-.45.42-.97.2l-2.77-1.2c1.15-1.47,2-2.85,2.72-4.1l-5.25,1.55-.05,4.45c0,.7.05,1.08.25,1.32.27.35.8.43,2.1.43,1.87,0,3.97-.15,6.92-.38l.2.12.02,3.42-.12.2c-2.3.17-4.6.3-6.82.3-2.85,0-4.77-.1-5.85-1.45-.7-.85-.67-1.97-.67-3.62l.02-3.62-1.8.52-3.15,1.02-.27-.08-.95-3.15.1-.25,3.37-.9,2.72-.77.05-5.82Z"/>
        <path class="cls-1" d="M117.54,19.12c3.35-2.87,5.22-7.12,5.4-12.72l.23-.17,3.52.3.2.2c-.27,5.95-2.3,10.45-5.22,13.7-.25.25-.38.35-.55.35-.1,0-.23-.02-.4-.12l-3.17-1.52ZM132.31,14.57c3-2.02,5.67-4.55,7.7-7.12l1.1,3.67c.08.25.12.42.12.55,0,.17-.08.27-.22.45-2.42,2.67-5.15,5.05-9.45,7.77-.27.18-.42.25-.57.25-.12,0-.23-.07-.4-.2l-2.42-1.95.2-2.82V4.42l.2-.17h3.55l.2.2v10.12Z"/>
        <path class="cls-1" d="M148.91,3.72l3.8.08h13.17l.2.17c-.33,4.55-1.72,8.65-4.45,12.07-1.97,2.52-4.8,4.42-8.6,6.1-.23.1-.35.15-.48.15-.15,0-.27-.07-.52-.27l-3.05-2.45c4.27-1.42,7.05-3.15,9.1-5.62,1.6-1.95,2.65-4.07,3.15-6.52h-8.47l-3.82.07-.22-.15v-3.45l.2-.17Z"/>
        <path class="cls-1" d="M181.89,20.45c0,.25,0,.5-.03.72,2.32-1.27,3.17-2.97,3.12-6.55l.2-.15,3.05.5.18.2c-.23,5.22-1.92,7.35-4.9,8.85-.08.05-.17.05-.25.05-.15,0-.3-.05-.4-.18l-1.28-1.32c-.45,1-1.47,1.25-3.4,1.25-.5,0-.58-.05-.65-.3l-.92-3.05c.73.02,1.03.02,1.42,0,.4-.05.58-.1.58-.75v-4.05h-1.52c-.18,3.92-.75,6.2-1.85,8.07-.12.18-.25.27-.38.27-.1,0-.2-.07-.33-.2l-1.85-2.05c.9-2.15,1.33-3.82,1.33-8.72V4.72l-.08-3.65.17-.17,2.7.08h2.22l2.7-.08.17.17-.08,3.65v8.57l.05,7.15ZM178.62,6.77v-2.92h-1.45v2.92h1.45ZM178.62,12.8v-3.15h-1.45v3.15h1.45ZM192.39,19.97c0,.52.08.57.55.57.88,0,.97-.17,1.1-2.45l2.67.97c.25.1.27.18.25.42-.12,2.07-.38,2.87-1.03,3.4-.77.65-1.6.87-3.62.87-2.65,0-3.35-.3-3.35-2.47l.05-4.82v-2.6h-3.2l-2.65.08-.17-.2.12-2.65v-3.02l-.08-2.42.17-.18,2.45.08h3.67c.82-1.82,1.52-3.67,2.05-5.47l.25-.08,3.12,1.22v.27c-.77,1.62-1.4,2.85-2.07,4.05l2.45-.08.17.18-.07,2.42v3.1l.07,2.55-.2.23-2.6-.08h-.12v6.1ZM186.14.1l.17.02c.65.77,1.8,2.57,2.35,3.77l-.08.2-2.77,1.3-.22-.1c-.45-1.1-1.4-2.85-2.1-3.9l.07-.18,2.58-1.12ZM191.79,10.97v-2.55h-5.4v2.55h5.4Z"/>
        <path class="cls-1" d="M204.84,17.02l-3.75.42-.17-.12-.27-2.95.12-.15,3.8-.27,4.87-.45v-3.07l-2.77.25-3.75.42-.2-.12-.28-2.92.12-.18,3.8-.27,3.07-.27v-2.72c-1.8.15-3.67.27-5.85.4-.33.02-.5-.08-.58-.2l-1.55-2.72c7.17-.2,12.17-.85,16.77-1.87l.25.05c.92.73,1.82,1.45,2.77,2.52l-.07.25c-3.2.55-5.7.9-8.05,1.2v2.77l4.02-.35,3.77-.45.17.1.27,3-.15.12-3.77.3-4.32.38v3.05l7.22-.67,3.77-.45.17.1.27,3.02-.15.12-3.77.3-7.52.7v3.07c0,.6.07.65,2.95.65,2.65,0,3.65-.05,4.17-.55.45-.48.52-1.32.6-2.95l3.07,1.1c.25.1.25.18.25.42-.1,2.52-.5,3.52-1.1,4.12-.83.82-1.58,1.15-7.2,1.15s-6.52-.6-6.52-3.67l.05-3.02-4.57.42Z"/>
        <path class="cls-1" d="M233.24,10.27l-3.17.08-.17-.2v-3.2l.22-.15,3.07.08h1.45V2.47l.2-.18h3.42l.2.2v4.37h3.55V2.45l.2-.18h3.5l.2.2v4.4h.92l3.57-.08.22.15v3.2l-.17.2-3.62-.08h-.98c-.17,3.2-.67,5.55-1.75,7.2-1.45,2.32-3.85,4.02-6.52,4.92-.2.05-.33.1-.45.1-.2,0-.32-.08-.52-.25l-2.88-2.32c3.7-.95,5.77-2.22,7.02-4.27.83-1.38,1.12-2.75,1.22-5.37h-3.52v.27l.1,4.42h-4.05l.12-4.47v-.23h-1.4Z"/>
        <path class="cls-1" d="M259.96,20.69l.12-8.57v-4.27l-.08-3.02.2-.17,3.67.08h8.15l3.57-.08.2.17-.08,3.25v7.05l.08,3.42-.18.2-3.8-.08h-7.8v2.02h-4.07ZM271.74,8.17h-7.7v7.05h7.7v-7.05Z"/>
        <path class="cls-1" d="M286.59,7l2.42-2.72.25-.05c1.5.75,3.5,2.07,5.07,3.45v.25l-2.6,3.02-.22.02c-1.5-1.45-3.17-2.67-4.9-3.75l-.03-.22ZM305.96,9.07c.08.2.1.35.1.48,0,.17-.08.27-.25.45-4.45,4.9-9.87,8.55-16.47,11.55l-.25-.05-2.25-3.37.05-.25c6.2-2.37,12.6-6.77,17.7-12.72l1.37,3.92Z"/>
      </g>
      <g>
        <path class="cls-6" d="M83.56,37.42c0-1.09.88-2.07,2.09-2.07h25.85c13.53,0,24.64,10.89,24.64,24.07s-11.11,24.5-24.53,24.5h-13.75v25.59c0,1.09-.99,2.07-2.09,2.07h-10.12c-1.21,0-2.09-.98-2.09-2.07V37.42ZM110.62,70.63c6.16,0,11.33-4.9,11.33-11.33,0-5.99-5.17-10.56-11.33-10.56h-12.76v21.89h12.76Z"/>
        <path class="cls-6" d="M148.35,45.04c0-4.14,3.3-7.51,7.48-7.51s7.7,3.38,7.7,7.51-3.41,7.51-7.7,7.51-7.48-3.38-7.48-7.51ZM149.34,70.09c0-1.2.99-2.07,2.09-2.07h9.13c1.1,0,2.09.87,2.09,2.07v39.42c0,1.09-.99,2.07-2.09,2.07h-9.13c-1.1,0-2.09-.98-2.09-2.07v-39.42Z"/>
        <path class="cls-6" d="M191.03,79.45h-3.74c-1.1,0-1.98-.98-1.98-2.07v-7.3c0-1.2.88-2.07,1.98-2.07h3.74v-12.09c0-1.09.99-2.07,2.09-2.07l9.02-.11c1.1,0,1.98.98,1.98,2.07v12.2h9.68c1.21,0,2.09.87,2.09,2.07v7.3c0,1.09-.88,2.07-2.09,2.07h-9.68v17.42c0,3.05,1.65,3.48,3.41,3.48,1.87,0,4.18-.76,5.39-1.2,1.21-.44,2.09.11,2.42,1.2l2.2,6.86c.44,1.09-.11,2.18-1.21,2.61-.55.33-7.7,2.83-13.09,2.83-8.47,0-12.21-5.23-12.21-14.05v-19.17Z"/>
        <path class="cls-6" d="M241.85,79.45h-3.74c-1.1,0-1.98-.98-1.98-2.07v-7.3c0-1.2.88-2.07,1.98-2.07h3.74v-12.09c0-1.09.99-2.07,2.09-2.07l9.02-.11c1.1,0,1.98.98,1.98,2.07v12.2h9.68c1.21,0,2.09.87,2.09,2.07v7.3c0,1.09-.88,2.07-2.09,2.07h-9.68v17.42c0,3.05,1.65,3.48,3.41,3.48,1.87,0,4.18-.76,5.39-1.2,1.21-.44,2.09.11,2.42,1.2l2.2,6.86c.44,1.09-.11,2.18-1.21,2.61-.55.33-7.7,2.83-13.09,2.83-8.47,0-12.21-5.23-12.21-14.05v-19.17Z"/>
        <path class="cls-6" d="M300.7,66.93c11.33,0,20.57,8.49,20.57,20.26,0,.76-.11,2.18-.22,2.94-.11,1.09-1.1,1.85-2.09,1.85h-28.16c.33,4.47,4.18,9.47,10.56,9.47,3.41,0,6.6-1.31,8.58-2.72,1.1-.65,2.09-.87,2.86,0l4.51,5.12c.77.76.99,1.96-.11,2.83-3.63,3.38-9.24,5.99-16.39,5.99-13.2,0-22.55-10.35-22.55-22.87s9.35-22.87,22.44-22.87ZM308.4,84.35c-.33-4.03-3.85-7.41-8.03-7.41-4.4,0-8.03,3.27-8.58,7.41h16.61Z"/>
      </g>
      <g>
        <g>
          <circle class="cls-4" cx="155.67" cy="46.97" r="9.14"/>
          <path class="cls-1" d="M155.67,57.12c-5.59,0-10.15-4.55-10.15-10.15s4.55-10.15,10.15-10.15,10.14,4.55,10.14,10.15-4.55,10.15-10.14,10.15ZM155.67,38.83c-4.49,0-8.15,3.65-8.15,8.15s3.65,8.15,8.15,8.15,8.14-3.65,8.14-8.15-3.65-8.15-8.14-8.15Z"/>
        </g>
        <g>
          <path class="cls-4" d="M156.53,37.88c3.05.26,5.99-1.82,7.29-4.6,1.97,4.04,2.5,8.76,1.46,13.13-.31,1.32-.46,2.86-1.21,4.19"/>
          <path class="cls-1" d="M164.94,51.08l-1.75-.98c.48-.86.69-1.89.89-2.88.07-.36.14-.71.22-1.05.83-3.51.59-7.32-.65-10.72-1.77,2.29-4.5,3.65-7.21,3.42l.17-1.99c2.47.21,5.12-1.49,6.3-4.03l.88-1.9.92,1.88c2.09,4.27,2.63,9.17,1.53,13.8-.07.31-.14.64-.21.98-.22,1.09-.46,2.33-1.1,3.47Z"/>
        </g>
      </g>
      <g>
        <g>
          <g>
            <path class="cls-7" d="M54.34,15.11c-.22,0-.45-.06-.65-.17-.63-.36-.85-1.16-.48-1.79l3.37-5.86c.36-.63,1.17-.84,1.79-.48.63.36.85,1.16.48,1.79l-3.37,5.86c-.24.42-.69.66-1.14.66Z"/>
            <path class="cls-7" d="M59.32,21.29c-.39,0-.78-.18-1.04-.51-.44-.57-.34-1.4.24-1.84l5.36-4.13c.57-.44,1.4-.34,1.84.24.44.57.34,1.4-.24,1.84l-5.36,4.13c-.24.18-.52.27-.8.27Z"/>
            <path class="cls-7" d="M63.35,28.3c-.58,0-1.11-.39-1.27-.97-.19-.7.22-1.42.93-1.61l6.53-1.77c.7-.19,1.42.22,1.61.93.19.7-.22,1.42-.93,1.61l-6.53,1.77c-.11.03-.23.05-.34.05Z"/>
          </g>
          <g>
            <g>
              <path class="cls-9" d="M49.17,98.51c-2.08-5-2.11-6.55-4.19-11.55-1.24-2.98-2.5-6.08-2.37-9.3.13-3.15,1.6-6.09,3.18-8.82,1.3-2.25,2.71-4.45,3.83-6.8,1.21-2.53,2.09-5.23,2.58-8,.89-4.95,1.13-9.89-2.34-13.78-2.93-3.28-4.92-7.28-6.87-11.22-2.02-4.08-4.06-8.22-4.9-12.69-.18-.96-.31-1.95-.75-2.82-.45-.89-1.19-1.6-1.95-2.26C28.58,5.4,19.23,2.55,10.28,3.64c-1.71.21-3.45.57-4.91,1.51C1.77,7.47,1.09,12.44,1.37,16.71c.61,9.29,4.51,17.96,7.64,26.73,3.77,10.59,7.55,21.19,11.88,31.56,3.79,9.08,8,17.98,12.62,26.67,1.46,2.74,3.47,5.03,5.7,7.2,1.56,1.52,3.35,2.93,5.47,3.43.74.18,1.53.23,2.27.02,1.16-.34,2.04-1.32,2.55-2.41s.7-2.3.88-3.5c.24-1.59-.75-6.18-1.2-7.9Z"/>
              <path class="cls-1" d="M45.92,113.78c-.49,0-1.01-.06-1.55-.19-2.58-.61-4.6-2.33-6.08-3.77-2.78-2.71-4.62-5.03-5.95-7.52-4.62-8.69-8.88-17.7-12.67-26.78-4.35-10.41-8.19-21.2-11.91-31.63-.59-1.64-1.2-3.28-1.81-4.92C3.31,31.87.56,24.54.06,16.8-.22,12.51.35,6.82,4.67,4.04c1.77-1.14,3.85-1.51,5.46-1.71,9.28-1.12,19.06,1.84,26.14,7.95.85.73,1.72,1.57,2.27,2.66.46.92.64,1.89.79,2.76l.07.41c.81,4.32,2.83,8.41,4.78,12.35,1.89,3.81,3.84,7.76,6.67,10.93,3.91,4.38,3.53,9.98,2.65,14.88-.52,2.87-1.42,5.68-2.69,8.33-.85,1.78-1.86,3.47-2.83,5.11-.35.59-.7,1.19-1.05,1.78-1.49,2.57-2.88,5.35-3,8.22-.13,2.99,1.14,6.05,2.27,8.74,1.06,2.55,1.61,4.24,2.13,5.88.53,1.66,1.04,3.22,2.06,5.67l.06.17c.02.06,1.58,6.15,1.23,8.44-.19,1.21-.4,2.58-.99,3.85-.73,1.57-1.96,2.7-3.38,3.12-.43.13-.9.19-1.38.19ZM14.05,4.73c-1.21,0-2.41.07-3.61.22-1.33.16-3.03.46-4.35,1.31-3.41,2.2-3.6,7.45-3.41,10.38.48,7.35,3.15,14.5,5.74,21.42.62,1.65,1.24,3.31,1.83,4.96,3.7,10.4,7.54,21.15,11.86,31.5,3.76,9,7.99,17.94,12.57,26.56,1.19,2.25,2.88,4.36,5.46,6.87,1.23,1.2,2.9,2.63,4.85,3.1.63.15,1.17.16,1.6.04.68-.2,1.32-.83,1.73-1.7.43-.93.61-2.05.77-3.14.17-1.11-.55-4.96-1.15-7.29-1.04-2.5-1.58-4.17-2.1-5.79-.53-1.66-1.04-3.22-2.06-5.67-1.23-2.95-2.62-6.29-2.47-9.86.15-3.44,1.7-6.56,3.35-9.42.35-.6.71-1.21,1.06-1.81.94-1.59,1.92-3.24,2.72-4.91,1.17-2.44,2-5.02,2.48-7.66.81-4.5,1.12-9.14-2.02-12.67-3.07-3.44-5.1-7.54-7.06-11.51-2.03-4.11-4.13-8.35-5.01-13.03l-.08-.43c-.14-.75-.26-1.47-.55-2.04-.32-.65-.89-1.21-1.63-1.85-5.62-4.84-13.07-7.55-20.5-7.55Z"/>
            </g>
            <g>
              <path class="cls-8" d="M37.74,15.55c1.54-.94,2.38-1.46,3.74-1.78,2.08-.5,3.89,1.45,5.07,3.23,3.65,5.5,6.49,11.54,8.38,17.86.42,1.4.77,3.01,0,4.25-.96,1.53-3.09,1.7-4.62,2.65"/>
              <path class="cls-1" d="M50.99,42.87l-1.38-2.23c.65-.41,1.35-.67,2.02-.93.97-.37,1.8-.69,2.19-1.3.49-.77.2-2.04-.14-3.17-1.86-6.21-4.63-12.1-8.22-17.51-.76-1.15-2.25-3.02-3.67-2.68-1.13.27-1.86.71-3.3,1.59l-.74-1.08-.62-1.16c1.57-.96,2.52-1.54,4.06-1.9,1.56-.37,3.95-.02,6.47,3.78,3.73,5.62,6.61,11.75,8.55,18.21.51,1.7.89,3.66-.15,5.33-.85,1.35-2.24,1.89-3.47,2.36-.58.22-1.13.43-1.58.71Z"/>
            </g>
            <g>
              <path class="cls-5" d="M52.24,50.83c-5.03-3.33-9.25-7.89-12.19-13.17-3.47-6.24-6.22-11.9-7.75-18.88-.59-2.69-1.7-8.1-1.6-10.85,3.83,1.93,6.23,5.21,8.15,9.04,1.92,3.83,3.23,7.95,5.19,11.76,1.87,3.64,4.32,6.96,6.17,10.61s3.1,7.81,2.32,11.83c-.43,0,.13-.36-.3-.35Z"/>
              <path class="cls-1" d="M52.53,52.5c-.7,0-1.07-.38-1.23-.6-.03-.05-.07-.11-.11-.18-5.07-3.43-9.31-8.06-12.29-13.41-3.64-6.54-6.37-12.31-7.88-19.24-1.16-5.29-1.7-9.05-1.63-11.18l.07-2.05,1.83.92c3.62,1.82,6.31,4.79,8.73,9.63.95,1.9,1.76,3.87,2.54,5.78.82,1.99,1.66,4.05,2.65,5.97.89,1.74,1.96,3.45,2.98,5.11,1.1,1.77,2.23,3.6,3.2,5.51,2.35,4.64,3.17,8.9,2.44,12.68l-.21,1.05h-1.07s-.01,0-.02,0ZM32.15,10.37c.22,2.03.71,4.81,1.44,8.13,1.45,6.64,3.99,12.01,7.61,18.52,2.54,4.56,6.06,8.56,10.26,11.66,0-2.64-.8-5.57-2.41-8.74-.92-1.81-2.02-3.6-3.09-5.32-1.05-1.7-2.14-3.46-3.08-5.29-1.04-2.02-1.91-4.13-2.74-6.18-.76-1.86-1.55-3.79-2.46-5.6-1.65-3.3-3.41-5.6-5.53-7.19Z"/>
            </g>
          </g>
        </g>
        <g>
          <path class="cls-2" d="M19.6,30.08c.09,2.26.89,4.21,1.1,6.28.31,2.99.47,5.98,1.35,8.91.71,2.39,1.41,4.77,2.36,7.08.5,1.22,1.1,2.4,1.39,3.7.07.3.49.69-.02.88-.39.15-.42-.34-.56-.59-1.52-2.62-2.64-5.41-3.74-8.23-.76-1.96-1.42-3.97-1.79-6-.62-3.46-1.25-6.95-.81-10.51.06-.52.09-1.04.72-1.53Z"/>
          <path class="cls-3" d="M34.23,49.88c-.75-.65-.81-1.64-1.08-2.48-1.13-3.63-2.36-7.21-3.89-10.71-1.3-2.96-2.89-5.75-4.45-8.56-.59-1.05-1.94-1.25-2.52-2.47,2.1.21,3.03,1.71,3.93,3.16.84,1.36,1.72,2.74,2.28,4.23.79,2.09,2.06,3.93,2.79,6.09.55,1.63,1.29,3.28,1.81,4.94.54,1.73,1.53,3.37,1.36,5.29-.07.17-.15.34-.22.51Z"/>
          <path class="cls-2" d="M34.23,49.88c.07-.17.15-.34.22-.51,1.29,2.57,1,5.15-.7,7.18-.68.82-1.74,1.17-2.88.97-.31-.05-.48-.2-.51-.5-.03-.31.15-.44.44-.55,3.16-1.18,3.32-1.41,3.37-4.82,0-.39.07-.79.11-1.18.08-.21.12-.42-.05-.61h0Z"/>
        </g>
      </g>
    </g>
  </g>
</svg>