<svg width="331" height="60" viewBox="0 0 331 60" fill="none" xmlns="http://www.w3.org/2000/svg">
<path d="M60.9414 26.32C59.2774 26.4 57.7974 26.216 56.5014 25.768C55.2214 25.336 54.2134 24.68 53.4774 23.8C52.7574 22.92 52.3974 21.848 52.3974 20.584C52.3974 19.768 52.5654 19.016 52.9014 18.328C53.2374 17.64 53.7014 17.024 54.2934 16.48C53.2214 16.704 52.1734 16.944 51.1494 17.2C50.1254 17.456 49.1974 17.712 48.3654 17.968C47.5494 18.224 46.8934 18.472 46.3974 18.712L45.3414 16.024C45.5334 15.992 45.8214 15.936 46.2054 15.856C46.5894 15.776 47.1174 15.664 47.7894 15.52C48.3974 15.392 49.0694 15.072 49.8054 14.56C50.5414 14.048 51.2854 13.44 52.0374 12.736C52.8054 12.016 53.5174 11.272 54.1734 10.504C54.8294 9.72 55.3734 8.992 55.8054 8.32C55.1814 8.464 54.5014 8.608 53.7654 8.752C53.0454 8.896 52.3494 9.016 51.6774 9.112C51.0214 9.208 50.4694 9.272 50.0214 9.304L49.1814 6.64C49.7734 6.64 50.4694 6.608 51.2694 6.544C52.0694 6.464 52.8774 6.368 53.6934 6.256C54.5094 6.144 55.2614 6.008 55.9494 5.848C56.6374 5.688 57.1734 5.528 57.5574 5.368L59.9574 6.904C59.6214 7.592 59.1414 8.376 58.5174 9.256C57.8934 10.136 57.1654 11.016 56.3334 11.896C55.5174 12.776 54.6214 13.592 53.6454 14.344C54.9094 14.088 56.1494 13.832 57.3654 13.576C58.5974 13.32 59.6854 13.096 60.6294 12.904C61.5894 12.696 62.2934 12.552 62.7414 12.472L63.1974 15.256C62.8934 15.256 62.5254 15.272 62.0934 15.304C61.6614 15.336 61.1894 15.392 60.6774 15.472C59.7494 15.584 58.8774 15.848 58.0614 16.264C57.2614 16.664 56.6054 17.216 56.0934 17.92C55.5974 18.624 55.3494 19.472 55.3494 20.464C55.3494 21.184 55.6294 21.776 56.1894 22.24C56.7494 22.704 57.5254 23.032 58.5174 23.224C59.5094 23.4 60.6374 23.44 61.9014 23.344C61.6454 23.744 61.4294 24.24 61.2534 24.832C61.0774 25.424 60.9734 25.92 60.9414 26.32ZM80.6214 25.216C80.5574 24.96 80.4374 24.656 80.2614 24.304C80.0854 23.952 79.8774 23.616 79.6374 23.296C79.4134 22.96 79.1894 22.688 78.9654 22.48C81.1574 22.144 82.8214 21.432 83.9574 20.344C85.1094 19.24 85.7174 17.944 85.7814 16.456C85.8454 15.272 85.6294 14.216 85.1334 13.288C84.6374 12.36 83.9574 11.608 83.0934 11.032C82.2454 10.456 81.3094 10.112 80.2854 10C80.1574 11.488 79.9174 13.008 79.5654 14.56C79.2134 16.112 78.7334 17.568 78.1254 18.928C77.5334 20.288 76.8054 21.44 75.9414 22.384C75.2854 23.088 74.6454 23.496 74.0214 23.608C73.4134 23.72 72.7654 23.632 72.0774 23.344C71.4054 23.056 70.8134 22.6 70.3014 21.976C69.7894 21.352 69.3974 20.616 69.1254 19.768C68.8534 18.904 68.7414 17.984 68.7894 17.008C68.8694 15.552 69.2134 14.224 69.8214 13.024C70.4294 11.808 71.2454 10.76 72.2694 9.88C73.2934 9 74.4694 8.336 75.7974 7.888C77.1254 7.44 78.5414 7.256 80.0454 7.336C81.2614 7.4 82.4054 7.672 83.4774 8.152C84.5494 8.632 85.4854 9.296 86.2854 10.144C87.1014 10.976 87.7254 11.944 88.1574 13.048C88.6054 14.152 88.7894 15.36 88.7094 16.672C88.5974 18.864 87.8294 20.704 86.4054 22.192C84.9814 23.664 83.0534 24.672 80.6214 25.216ZM72.8214 20.368C72.9974 20.496 73.1814 20.56 73.3734 20.56C73.5654 20.56 73.7574 20.464 73.9494 20.272C74.5254 19.696 75.0534 18.88 75.5334 17.824C76.0294 16.768 76.4374 15.576 76.7574 14.248C77.0934 12.92 77.3094 11.568 77.4054 10.192C76.3014 10.448 75.3174 10.912 74.4534 11.584C73.6054 12.256 72.9334 13.072 72.4374 14.032C71.9414 14.976 71.6614 16.016 71.5974 17.152C71.5654 17.904 71.6614 18.56 71.8854 19.12C72.1254 19.664 72.4374 20.08 72.8214 20.368ZM99.2934 25.744C98.1094 25.888 97.0614 25.832 96.1494 25.576C95.2374 25.336 94.5254 24.928 94.0134 24.352C93.5014 23.776 93.2454 23.056 93.2454 22.192C93.2454 21.056 93.7014 19.944 94.6134 18.856C95.5414 17.752 96.8134 16.856 98.4294 16.168V12.544C97.5494 12.608 96.6934 12.656 95.8614 12.688C95.0454 12.72 94.2854 12.72 93.5814 12.688L93.4374 9.928C94.0454 9.992 94.7894 10.016 95.6694 10C96.5494 9.968 97.4694 9.904 98.4294 9.808V5.944L101.093 5.968V9.496C101.893 9.368 102.637 9.232 103.325 9.088C104.029 8.928 104.605 8.76 105.053 8.584L105.341 11.224C104.781 11.432 104.133 11.616 103.397 11.776C102.661 11.936 101.893 12.08 101.093 12.208V15.352C101.653 15.224 102.237 15.128 102.845 15.064C103.453 15 104.085 14.968 104.741 14.968C106.277 14.968 107.581 15.208 108.653 15.688C109.741 16.152 110.565 16.784 111.125 17.584C111.685 18.368 111.965 19.256 111.965 20.248C111.965 21.784 111.501 22.992 110.573 23.872C109.645 24.752 108.389 25.184 106.805 25.168C105.573 25.168 104.533 24.864 103.685 24.256C102.853 23.632 102.253 22.712 101.885 21.496C102.253 21.384 102.701 21.216 103.229 20.992C103.757 20.752 104.173 20.528 104.477 20.32C104.877 21.648 105.645 22.312 106.781 22.312C107.485 22.312 108.021 22.112 108.389 21.712C108.757 21.296 108.941 20.784 108.941 20.176C108.941 19.392 108.589 18.744 107.885 18.232C107.181 17.704 106.125 17.44 104.717 17.44C103.437 17.44 102.229 17.6 101.093 17.92V23.896C101.093 24.488 100.957 24.92 100.685 25.192C100.413 25.48 99.9494 25.664 99.2934 25.744ZM111.509 14.632C111.125 14.248 110.605 13.832 109.949 13.384C109.293 12.92 108.621 12.488 107.933 12.088C107.245 11.672 106.629 11.36 106.085 11.152L107.597 8.992C108.173 9.216 108.805 9.52 109.493 9.904C110.181 10.288 110.853 10.696 111.509 11.128C112.165 11.56 112.717 11.976 113.165 12.376C113.005 12.552 112.805 12.792 112.565 13.096C112.341 13.4 112.125 13.696 111.917 13.984C111.725 14.272 111.589 14.488 111.509 14.632ZM97.5654 23.2C97.8694 23.216 98.0854 23.184 98.2134 23.104C98.3574 23.024 98.4294 22.88 98.4294 22.672V19C97.6934 19.448 97.1094 19.936 96.6774 20.464C96.2454 20.992 96.0294 21.52 96.0294 22.048C96.0294 22.416 96.1654 22.696 96.4374 22.888C96.7094 23.08 97.0854 23.184 97.5654 23.2ZM123.677 26.416V13.864H126.317V15.496L127.709 14.08C128.077 14.352 128.485 14.688 128.933 15.088C129.381 15.472 129.845 15.896 130.325 16.36C130.677 15.816 130.989 15.28 131.261 14.752C131.533 14.224 131.749 13.728 131.909 13.264L134.261 14.224C134.005 14.864 133.693 15.52 133.325 16.192C132.957 16.848 132.557 17.504 132.125 18.16C132.589 18.624 133.013 19.08 133.397 19.528C133.797 19.976 134.141 20.384 134.429 20.752V13.816H137.021V26.416H123.677ZM118.661 26.776V4.912H121.349V9.784L123.005 9.064C123.197 9.352 123.421 9.752 123.677 10.264C123.949 10.776 124.197 11.28 124.421 11.776C124.645 12.256 124.805 12.624 124.901 12.88L122.765 13.84C122.685 13.584 122.557 13.264 122.381 12.88C122.221 12.48 122.045 12.072 121.853 11.656C121.677 11.224 121.509 10.84 121.349 10.504V26.776H118.661ZM134.165 13.024C133.989 12.912 133.749 12.792 133.445 12.664C133.157 12.52 132.869 12.392 132.581 12.28C132.293 12.152 132.045 12.064 131.837 12.016C132.077 11.648 132.341 11.192 132.629 10.648C132.917 10.088 133.197 9.496 133.469 8.872C133.741 8.248 133.989 7.64 134.213 7.048C134.437 6.44 134.605 5.92 134.717 5.488L137.453 6.4C137.245 7.024 136.949 7.752 136.565 8.584C136.197 9.4 135.797 10.208 135.365 11.008C134.949 11.792 134.549 12.464 134.165 13.024ZM126.317 24.016H134.429V21.256C134.157 21.464 133.845 21.728 133.493 22.048C133.141 22.352 132.877 22.6 132.701 22.792C132.445 22.44 132.133 22.048 131.765 21.616C131.413 21.168 131.021 20.712 130.589 20.248C130.109 20.84 129.613 21.392 129.101 21.904C128.605 22.4 128.125 22.816 127.661 23.152C127.517 22.992 127.317 22.792 127.061 22.552C126.821 22.312 126.573 22.088 126.317 21.88V24.016ZM117.365 16.888C117.189 16.808 116.957 16.72 116.669 16.624C116.397 16.528 116.117 16.44 115.829 16.36C115.541 16.28 115.309 16.224 115.133 16.192C115.245 15.84 115.357 15.392 115.469 14.848C115.581 14.288 115.677 13.696 115.757 13.072C115.853 12.448 115.933 11.856 115.997 11.296C116.061 10.72 116.093 10.24 116.093 9.856L118.445 10.12C118.429 10.664 118.381 11.272 118.301 11.944C118.221 12.616 118.125 13.28 118.013 13.936C117.901 14.592 117.781 15.184 117.653 15.712C117.541 16.24 117.445 16.632 117.365 16.888ZM125.813 12.184C125.557 11.336 125.205 10.432 124.757 9.472C124.325 8.512 123.885 7.688 123.437 7L125.813 5.968C126.101 6.416 126.397 6.944 126.701 7.552C127.005 8.144 127.293 8.76 127.565 9.4C127.853 10.04 128.085 10.64 128.261 11.2C128.037 11.264 127.765 11.36 127.445 11.488C127.125 11.6 126.813 11.72 126.509 11.848C126.205 11.976 125.973 12.088 125.813 12.184ZM129.389 11.056C129.229 10.176 128.997 9.288 128.693 8.392C128.389 7.496 128.061 6.68 127.709 5.944L130.181 5.2C130.549 5.984 130.893 6.848 131.213 7.792C131.533 8.72 131.773 9.576 131.933 10.36C131.709 10.392 131.429 10.448 131.093 10.528C130.757 10.608 130.429 10.696 130.109 10.792C129.805 10.888 129.565 10.976 129.389 11.056ZM126.317 20.992C126.717 20.656 127.133 20.264 127.565 19.816C127.997 19.352 128.421 18.872 128.837 18.376C128.389 17.912 127.949 17.48 127.517 17.08C127.085 16.68 126.685 16.344 126.317 16.072V20.992ZM151.085 26.464C150.829 26.192 150.453 25.896 149.957 25.576C149.477 25.272 149.053 25.048 148.685 24.904C149.821 24.12 150.845 23.144 151.757 21.976C152.685 20.792 153.445 19.52 154.037 18.16C153.349 17.952 152.653 17.784 151.949 17.656C151.245 17.512 150.557 17.408 149.885 17.344C149.469 18.128 149.037 18.848 148.589 19.504C148.157 20.144 147.717 20.688 147.269 21.136C146.597 21.824 145.861 22.304 145.061 22.576C144.277 22.848 143.517 22.928 142.781 22.816C142.061 22.688 141.469 22.376 141.005 21.88C140.541 21.384 140.309 20.72 140.309 19.888C140.309 18.96 140.613 18.112 141.221 17.344C141.829 16.576 142.709 15.96 143.861 15.496C145.029 15.032 146.453 14.784 148.133 14.752C148.565 13.84 148.981 12.872 149.381 11.848C149.781 10.824 150.141 9.808 150.461 8.8C149.869 8.96 149.245 9.12 148.589 9.28C147.949 9.424 147.341 9.552 146.765 9.664C146.205 9.776 145.741 9.856 145.373 9.904L144.605 7.144C145.021 7.128 145.557 7.08 146.213 7C146.869 6.92 147.557 6.816 148.277 6.688C149.013 6.56 149.701 6.424 150.341 6.28C150.997 6.136 151.517 5.992 151.901 5.848L153.917 6.928C153.645 8.048 153.261 9.32 152.765 10.744C152.269 12.168 151.701 13.568 151.061 14.944C151.669 15.024 152.285 15.128 152.909 15.256C153.549 15.384 154.197 15.536 154.853 15.712C154.997 15.152 155.109 14.6 155.189 14.056C155.269 13.496 155.317 12.944 155.333 12.4L158.189 13.096C158.109 14.216 157.917 15.352 157.613 16.504C158.253 16.712 158.877 16.936 159.485 17.176C160.109 17.416 160.701 17.672 161.261 17.944C161.101 18.136 160.925 18.392 160.733 18.712C160.541 19.032 160.365 19.368 160.205 19.72C160.061 20.056 159.941 20.352 159.845 20.608C159.349 20.336 158.837 20.072 158.309 19.816C157.797 19.544 157.269 19.304 156.725 19.096C156.101 20.552 155.309 21.928 154.349 23.224C153.389 24.504 152.301 25.584 151.085 26.464ZM142.829 19.552C142.861 19.76 142.997 19.928 143.237 20.056C143.477 20.168 143.773 20.184 144.125 20.104C144.493 20.024 144.885 19.784 145.301 19.384C145.525 19.16 145.765 18.872 146.021 18.52C146.277 18.168 146.533 17.768 146.789 17.32C145.429 17.464 144.413 17.76 143.741 18.208C143.069 18.64 142.765 19.088 142.829 19.552ZM168.653 26.392C168.349 25.88 167.941 25.328 167.429 24.736C166.933 24.144 166.405 23.584 165.845 23.056C165.301 22.512 164.781 22.064 164.285 21.712L166.109 20.056C166.477 20.296 166.877 20.608 167.309 20.992C167.741 21.36 168.181 21.76 168.629 22.192C169.077 22.608 169.485 23.016 169.853 23.416C170.237 23.816 170.549 24.168 170.789 24.472L168.653 26.392ZM188.477 25V8.2H196.157C197.725 8.2 198.965 8.568 199.877 9.304C200.805 10.04 201.269 11.28 201.269 13.024C201.269 14.768 200.805 16.016 199.877 16.768C198.965 17.52 197.725 17.896 196.157 17.896H191.237V25H188.477ZM191.237 15.304H195.773C196.589 15.304 197.221 15.128 197.669 14.776C198.117 14.424 198.341 13.84 198.341 13.024C198.341 12.224 198.117 11.648 197.669 11.296C197.221 10.944 196.589 10.768 195.773 10.768H191.237V15.304ZM203.762 25V13.456H206.45V25H203.762ZM205.082 11.56C204.618 11.56 204.218 11.392 203.882 11.056C203.546 10.72 203.378 10.32 203.378 9.856C203.378 9.392 203.546 8.992 203.882 8.656C204.218 8.32 204.618 8.152 205.082 8.152C205.546 8.152 205.946 8.32 206.282 8.656C206.618 8.992 206.786 9.392 206.786 9.856C206.786 10.32 206.618 10.72 206.282 11.056C205.946 11.392 205.546 11.56 205.082 11.56ZM214.434 25.264C213.298 25.264 212.426 25.056 211.818 24.64C211.226 24.224 210.93 23.392 210.93 22.144V15.784H208.722V13.456H210.93V9.4H213.618V13.456H216.81V15.784H213.618V21.448C213.618 21.992 213.746 22.36 214.002 22.552C214.274 22.744 214.658 22.84 215.154 22.84C215.458 22.84 215.762 22.792 216.066 22.696C216.386 22.6 216.634 22.504 216.81 22.408V24.88C216.522 24.992 216.162 25.08 215.73 25.144C215.298 25.224 214.866 25.264 214.434 25.264ZM223.669 25.264C222.533 25.264 221.661 25.056 221.053 24.64C220.461 24.224 220.165 23.392 220.165 22.144V15.784H217.957V13.456H220.165V9.4H222.853V13.456H226.045V15.784H222.853V21.448C222.853 21.992 222.981 22.36 223.237 22.552C223.509 22.744 223.893 22.84 224.389 22.84C224.693 22.84 224.997 22.792 225.301 22.696C225.621 22.6 225.869 22.504 226.045 22.408V24.88C225.757 24.992 225.397 25.08 224.965 25.144C224.533 25.224 224.101 25.264 223.669 25.264ZM233.215 25.264C231.535 25.264 230.175 24.76 229.135 23.752C228.095 22.728 227.575 21.216 227.575 19.216C227.575 17.968 227.807 16.896 228.271 16C228.735 15.088 229.383 14.392 230.215 13.912C231.047 13.416 231.999 13.168 233.071 13.168C234.143 13.168 235.055 13.432 235.807 13.96C236.559 14.472 237.135 15.176 237.535 16.072C237.935 16.968 238.135 17.976 238.135 19.096V19.72H230.239C230.303 20.872 230.607 21.696 231.151 22.192C231.695 22.672 232.399 22.912 233.263 22.912C234.015 22.912 234.631 22.736 235.111 22.384C235.591 22.016 236.007 21.472 236.359 20.752L238.351 22.144C237.759 23.248 237.031 24.048 236.167 24.544C235.319 25.024 234.335 25.264 233.215 25.264ZM230.359 17.632H235.471C235.343 16.88 235.063 16.304 234.631 15.904C234.215 15.488 233.679 15.28 233.023 15.28C232.319 15.28 231.735 15.472 231.271 15.856C230.823 16.24 230.519 16.832 230.359 17.632ZM250.459 26.464C249.227 26.4 248.259 26.016 247.555 25.312C246.851 24.608 246.507 23.752 246.523 22.744C246.539 21.8 246.947 21.008 247.747 20.368C248.563 19.728 249.699 19.432 251.155 19.48C251.379 19.496 251.603 19.512 251.827 19.528C252.051 19.528 252.267 19.544 252.475 19.576V14.128H255.211V20.224C256.123 20.528 256.987 20.92 257.803 21.4C258.635 21.88 259.435 22.424 260.203 23.032C259.915 23.288 259.603 23.656 259.267 24.136C258.947 24.616 258.707 25.04 258.547 25.408C258.035 24.944 257.499 24.512 256.939 24.112C256.379 23.696 255.795 23.336 255.187 23.032C255.027 25.464 253.451 26.608 250.459 26.464ZM243.835 22.264C243.579 22.04 243.211 21.784 242.731 21.496C242.251 21.208 241.811 20.992 241.411 20.848C242.403 19.712 243.291 18.384 244.075 16.864C244.859 15.328 245.507 13.736 246.019 12.088C245.219 12.2 244.475 12.296 243.787 12.376C243.099 12.456 242.547 12.512 242.131 12.544L241.771 9.88C242.331 9.88 243.051 9.84 243.931 9.76C244.827 9.68 245.763 9.568 246.739 9.424C246.915 8.672 247.051 7.936 247.147 7.216C247.243 6.48 247.307 5.768 247.339 5.08L250.003 5.464C249.875 6.664 249.707 7.832 249.499 8.968C250.059 8.856 250.595 8.744 251.107 8.632C251.635 8.504 252.107 8.384 252.523 8.272L252.883 10.792C252.387 10.936 251.787 11.08 251.083 11.224C250.395 11.368 249.659 11.504 248.875 11.632C248.331 13.648 247.627 15.552 246.763 17.344C245.899 19.136 244.923 20.776 243.835 22.264ZM259.075 14.608C258.819 14.336 258.475 14.032 258.043 13.696C257.611 13.36 257.147 13.024 256.651 12.688C256.155 12.352 255.659 12.048 255.163 11.776C254.683 11.504 254.259 11.304 253.891 11.176L255.307 9.064C255.691 9.224 256.139 9.44 256.651 9.712C257.163 9.968 257.683 10.264 258.211 10.6C258.739 10.92 259.227 11.24 259.675 11.56C260.123 11.88 260.491 12.176 260.779 12.448L259.075 14.608ZM250.675 24.064C251.283 24.064 251.731 23.928 252.019 23.656C252.323 23.368 252.475 22.872 252.475 22.168V22C251.979 21.888 251.467 21.816 250.939 21.784C250.395 21.768 249.955 21.856 249.619 22.048C249.299 22.24 249.131 22.512 249.115 22.864C249.099 23.216 249.227 23.504 249.499 23.728C249.771 23.952 250.163 24.064 250.675 24.064ZM273.379 26.272C273.331 26.032 273.235 25.728 273.091 25.36C272.963 24.992 272.803 24.624 272.611 24.256C272.419 23.888 272.227 23.6 272.035 23.392C274.595 23.456 276.547 23.152 277.891 22.48C279.251 21.808 279.931 20.856 279.931 19.624C279.931 18.904 279.643 18.344 279.067 17.944C278.491 17.544 277.739 17.344 276.811 17.344C276.091 17.344 275.323 17.456 274.507 17.68C273.691 17.888 272.915 18.24 272.179 18.736C271.459 19.216 270.851 19.864 270.355 20.68L267.787 19.552C268.107 18.992 268.379 18.296 268.603 17.464C268.843 16.616 269.035 15.736 269.179 14.824C269.323 13.912 269.427 13.048 269.491 12.232C269.555 11.416 269.563 10.744 269.515 10.216L272.515 10.576C272.531 11.36 272.467 12.288 272.323 13.36C272.179 14.416 271.955 15.464 271.651 16.504C272.499 15.944 273.387 15.512 274.315 15.208C275.243 14.904 276.115 14.752 276.931 14.752C278.179 14.752 279.259 14.968 280.171 15.4C281.099 15.816 281.819 16.4 282.331 17.152C282.843 17.888 283.099 18.736 283.099 19.696C283.099 20.912 282.747 22.008 282.043 22.984C281.355 23.944 280.291 24.712 278.851 25.288C277.427 25.864 275.603 26.192 273.379 26.272ZM277.363 10.888C276.963 10.568 276.483 10.248 275.923 9.928C275.379 9.608 274.803 9.304 274.195 9.016C273.587 8.728 272.987 8.48 272.395 8.272C271.819 8.048 271.307 7.896 270.859 7.816L272.299 5.32C272.715 5.432 273.211 5.608 273.787 5.848C274.363 6.072 274.963 6.328 275.587 6.616C276.227 6.904 276.827 7.192 277.387 7.48C277.963 7.768 278.435 8.032 278.803 8.272L277.363 10.888ZM71.184 56.176V53.584H79.512V50.968H73.752V48.352H79.512V46.096H73.848V44.512C73.384 44.816 72.912 45.112 72.432 45.4C71.952 45.672 71.48 45.928 71.016 46.168C70.824 45.832 70.552 45.432 70.2 44.968C69.848 44.488 69.52 44.112 69.216 43.84C70.224 43.408 71.24 42.864 72.264 42.208C73.304 41.552 74.296 40.816 75.24 40C76.2 39.184 77.064 38.328 77.832 37.432C78.6 36.536 79.224 35.648 79.704 34.768L82.416 35.152C82.944 35.984 83.6 36.808 84.384 37.624C85.168 38.44 86.024 39.208 86.952 39.928C87.896 40.648 88.864 41.296 89.856 41.872C90.848 42.448 91.824 42.92 92.784 43.288C92.48 43.576 92.152 43.976 91.8 44.488C91.448 44.984 91.168 45.448 90.96 45.88C90.496 45.656 90.024 45.416 89.544 45.16C89.064 44.888 88.576 44.6 88.08 44.296V46.096H82.536V48.352H88.224V50.968H82.536V53.584H90.864V56.176H71.184ZM75.36 43.432H86.808C85.672 42.632 84.592 41.752 83.568 40.792C82.544 39.816 81.688 38.816 81 37.792C80.328 38.768 79.504 39.744 78.528 40.72C77.552 41.68 76.496 42.584 75.36 43.432ZM110.688 55.936C109.024 55.744 107.552 55.264 106.272 54.496C104.992 53.712 103.992 52.696 103.272 51.448C102.552 50.184 102.192 48.752 102.192 47.152C102.192 46 102.472 44.832 103.032 43.648C103.592 42.448 104.416 41.384 105.504 40.456C104.224 40.664 102.952 40.888 101.688 41.128C100.424 41.352 99.272 41.568 98.232 41.776C97.208 41.984 96.416 42.168 95.856 42.328L95.208 39.208C95.736 39.176 96.464 39.104 97.392 38.992C98.336 38.88 99.392 38.744 100.56 38.584C101.744 38.408 102.96 38.224 104.208 38.032C105.472 37.824 106.688 37.616 107.856 37.408C109.04 37.2 110.096 37 111.024 36.808C111.968 36.6 112.704 36.416 113.232 36.256L114 39.184C113.76 39.2 113.456 39.24 113.088 39.304C112.736 39.352 112.328 39.408 111.864 39.472C111 39.584 110.16 39.856 109.344 40.288C108.544 40.72 107.824 41.28 107.184 41.968C106.56 42.64 106.064 43.416 105.696 44.296C105.328 45.176 105.144 46.128 105.144 47.152C105.144 48.368 105.456 49.384 106.08 50.2C106.704 51.016 107.552 51.656 108.624 52.12C109.712 52.568 110.928 52.872 112.272 53.032C112.032 53.288 111.8 53.6 111.576 53.968C111.352 54.32 111.16 54.672 111 55.024C110.84 55.392 110.736 55.696 110.688 55.936ZM119.4 56.776C119.192 56.6 118.864 56.392 118.416 56.152C117.984 55.912 117.624 55.744 117.336 55.648C117.848 55.008 118.256 54.352 118.56 53.68C118.88 53.008 119.112 52.232 119.256 51.352C119.4 50.472 119.472 49.432 119.472 48.232V42.52C119.2 42.312 118.856 42.064 118.44 41.776C118.024 41.488 117.656 41.272 117.336 41.128C117.768 40.76 118.184 40.304 118.584 39.76C118.984 39.216 119.352 38.64 119.688 38.032C120.04 37.424 120.344 36.832 120.6 36.256C120.856 35.68 121.056 35.176 121.2 34.744L123.888 35.32C123.824 35.496 123.744 35.68 123.648 35.872C123.568 36.064 123.488 36.264 123.408 36.472H127.248L127.992 37.312C127.784 37.76 127.52 38.264 127.2 38.824C126.88 39.384 126.56 39.928 126.24 40.456H128.784V41.488C129.52 41.072 130.152 40.528 130.68 39.856C131.224 39.184 131.608 38.448 131.832 37.648H129.24V35.488H139.656C139.592 36.992 139.48 38.224 139.32 39.184C139.176 40.144 138.96 40.888 138.672 41.416C138.4 41.944 138.04 42.312 137.592 42.52C137.16 42.728 136.632 42.832 136.008 42.832H134.424C134.408 42.624 134.368 42.368 134.304 42.064C134.256 41.744 134.192 41.44 134.112 41.152C134.048 40.848 133.976 40.608 133.896 40.432H135.192C135.576 40.432 135.88 40.384 136.104 40.288C136.328 40.176 136.496 39.92 136.608 39.52C136.736 39.12 136.824 38.496 136.872 37.648H134.52C134.216 38.864 133.688 39.976 132.936 40.984C132.2 41.976 131.264 42.824 130.128 43.528C129.984 43.336 129.784 43.096 129.528 42.808C129.272 42.52 129.024 42.264 128.784 42.04V47.488C129.2 46.88 129.584 46.176 129.936 45.376C130.288 44.576 130.552 43.848 130.728 43.192L133.056 43.816C132.992 44.024 132.92 44.248 132.84 44.488C132.76 44.728 132.672 44.976 132.576 45.232H133.68V43.24H136.224V45.232H139.488V47.464H136.224V49.552H140.04V51.784H136.224V56.752H133.68V51.784H129.456V49.552H133.68V47.464H131.52C131.36 47.784 131.184 48.096 130.992 48.4C130.816 48.688 130.64 48.944 130.464 49.168C130.288 49.04 130.032 48.888 129.696 48.712C129.36 48.536 129.056 48.392 128.784 48.28V54.664C128.784 56.024 127.968 56.704 126.336 56.704H124.752C124.736 56.496 124.696 56.24 124.632 55.936C124.584 55.632 124.528 55.328 124.464 55.024C124.4 54.736 124.328 54.512 124.248 54.352H125.76C126.032 54.352 126.224 54.304 126.336 54.208C126.464 54.112 126.528 53.936 126.528 53.68V50.464H121.656C121.544 51.776 121.304 52.944 120.936 53.968C120.568 54.992 120.056 55.928 119.4 56.776ZM121.2 40.456H123.504C123.68 40.136 123.856 39.808 124.032 39.472C124.224 39.136 124.368 38.848 124.464 38.608H122.304C122.144 38.928 121.968 39.24 121.776 39.544C121.584 39.848 121.392 40.152 121.2 40.456ZM121.752 48.28H123.096V46.48H121.752V48.28ZM125.184 48.28H126.528V46.48H125.184V48.28ZM121.752 44.488H123.096V42.688H121.752V44.488ZM125.184 44.488H126.528V42.688H125.184V44.488ZM147.888 56.992C147.712 56.624 147.48 56.216 147.192 55.768C146.92 55.32 146.616 54.928 146.28 54.592C148.12 53.984 149.576 53.12 150.648 52C151.72 50.864 152.464 49.448 152.88 47.752H147.432V45.184H153.264C153.28 44.96 153.288 44.728 153.288 44.488C153.304 44.248 153.312 44.008 153.312 43.768V41.272H148.872V38.8H153.312V34.816H156.144V38.8H161.904V45.184H164.016V47.752H157.032C157.736 49.24 158.712 50.552 159.96 51.688C161.224 52.824 162.68 53.688 164.328 54.28C164.12 54.488 163.896 54.752 163.656 55.072C163.432 55.392 163.216 55.712 163.008 56.032C162.816 56.352 162.672 56.624 162.576 56.848C160.896 56.048 159.44 55.056 158.208 53.872C156.976 52.672 155.968 51.248 155.184 49.6C154.576 51.264 153.664 52.728 152.448 53.992C151.248 55.24 149.728 56.24 147.888 56.992ZM144.456 56.608L142.008 54.856C142.376 54.376 142.752 53.808 143.136 53.152C143.52 52.496 143.888 51.816 144.24 51.112C144.608 50.392 144.936 49.688 145.224 49C145.528 48.312 145.76 47.696 145.92 47.152C146.048 47.296 146.248 47.48 146.52 47.704C146.808 47.928 147.104 48.144 147.408 48.352C147.712 48.56 147.968 48.728 148.176 48.856C148 49.416 147.768 50.048 147.48 50.752C147.192 51.44 146.872 52.144 146.52 52.864C146.168 53.584 145.816 54.272 145.464 54.928C145.112 55.568 144.776 56.128 144.456 56.608ZM145.536 45.424C145.248 45.168 144.848 44.864 144.336 44.512C143.84 44.16 143.32 43.824 142.776 43.504C142.232 43.168 141.752 42.912 141.336 42.736L142.752 40.432C143.456 40.768 144.216 41.176 145.032 41.656C145.864 42.12 146.56 42.584 147.12 43.048C146.992 43.192 146.816 43.424 146.592 43.744C146.384 44.048 146.176 44.36 145.968 44.68C145.776 44.984 145.632 45.232 145.536 45.424ZM147.168 40.12C146.896 39.864 146.504 39.56 145.992 39.208C145.496 38.856 144.968 38.52 144.408 38.2C143.864 37.88 143.384 37.632 142.968 37.456L144.432 35.2C144.864 35.376 145.36 35.624 145.92 35.944C146.48 36.264 147.024 36.592 147.552 36.928C148.08 37.264 148.496 37.56 148.8 37.816C148.672 37.96 148.496 38.184 148.272 38.488C148.048 38.792 147.832 39.096 147.624 39.4C147.416 39.704 147.264 39.944 147.168 40.12ZM156.096 45.184H159.024V41.272H156.144V43.768C156.144 44.008 156.136 44.248 156.12 44.488C156.12 44.728 156.112 44.96 156.096 45.184ZM182.496 55.936C180.832 55.744 179.36 55.256 178.08 54.472C176.8 53.688 175.8 52.672 175.08 51.424C174.376 50.176 174.024 48.752 174.024 47.152C174.024 46 174.296 44.824 174.84 43.624C175.4 42.424 176.232 41.36 177.336 40.432C176.056 40.64 174.776 40.864 173.496 41.104C172.232 41.344 171.08 41.568 170.04 41.776C169.016 41.984 168.224 42.16 167.664 42.304L167.016 39.208C167.544 39.176 168.272 39.104 169.2 38.992C170.144 38.88 171.2 38.744 172.368 38.584C173.552 38.408 174.768 38.224 176.016 38.032C177.28 37.824 178.496 37.616 179.664 37.408C180.848 37.2 181.904 37 182.832 36.808C183.776 36.6 184.512 36.416 185.04 36.256L185.808 39.184C185.552 39.2 185.24 39.232 184.872 39.28C184.52 39.328 184.12 39.384 183.672 39.448C182.792 39.56 181.952 39.832 181.152 40.264C180.352 40.696 179.632 41.256 178.992 41.944C178.368 42.632 177.872 43.416 177.504 44.296C177.136 45.176 176.952 46.128 176.952 47.152C176.952 48.384 177.264 49.408 177.888 50.224C178.512 51.04 179.36 51.68 180.432 52.144C181.52 52.592 182.736 52.896 184.08 53.056C183.84 53.296 183.608 53.6 183.384 53.968C183.16 54.32 182.968 54.672 182.808 55.024C182.648 55.392 182.544 55.696 182.496 55.936ZM186.672 44.92C186.368 44.424 185.96 43.896 185.448 43.336C184.952 42.776 184.496 42.328 184.08 41.992L185.376 40.912C185.616 41.104 185.904 41.384 186.24 41.752C186.592 42.12 186.936 42.496 187.272 42.88C187.608 43.248 187.864 43.568 188.04 43.84L186.672 44.92ZM184.512 46.744C184.208 46.232 183.808 45.696 183.312 45.136C182.816 44.576 182.36 44.12 181.944 43.768L183.264 42.712C183.504 42.904 183.792 43.184 184.128 43.552C184.464 43.92 184.792 44.296 185.112 44.68C185.448 45.064 185.704 45.384 185.88 45.64L184.512 46.744ZM204.6 56.368C202.648 56.464 200.936 56.368 199.464 56.08C197.992 55.808 196.848 55.296 196.032 54.544C195.232 53.776 194.832 52.728 194.832 51.4C194.832 50.632 195.04 49.96 195.456 49.384C195.872 48.792 196.44 48.312 197.16 47.944C197.88 47.576 198.704 47.328 199.632 47.2C200.576 47.072 201.568 47.072 202.608 47.2C202.352 46.864 202.104 46.512 201.864 46.144C201.624 45.776 201.392 45.4 201.168 45.016C199.664 45.272 198.192 45.48 196.752 45.64C195.328 45.784 194.104 45.848 193.08 45.832L192.528 43.288C193.424 43.32 194.528 43.28 195.84 43.168C197.152 43.04 198.504 42.864 199.896 42.64C199.56 41.952 199.256 41.272 198.984 40.6C198.024 40.728 197.088 40.832 196.176 40.912C195.28 40.992 194.496 41.04 193.824 41.056L193.272 38.56C193.928 38.576 194.672 38.56 195.504 38.512C196.352 38.448 197.216 38.36 198.096 38.248C197.744 37.208 197.504 36.312 197.376 35.56L200.208 35.224C200.288 35.944 200.496 36.816 200.832 37.84C201.728 37.68 202.576 37.504 203.376 37.312C204.192 37.104 204.872 36.896 205.416 36.688L206.136 39.136C205.608 39.328 204.96 39.512 204.192 39.688C203.424 39.864 202.6 40.032 201.72 40.192C201.848 40.512 201.984 40.84 202.128 41.176C202.288 41.496 202.448 41.816 202.608 42.136C203.776 41.896 204.84 41.64 205.8 41.368C206.776 41.08 207.544 40.792 208.104 40.504L209.04 42.88C208.448 43.168 207.704 43.448 206.808 43.72C205.928 43.992 204.968 44.24 203.928 44.464C204.44 45.296 204.976 46.072 205.536 46.792C206.112 47.496 206.696 48.088 207.288 48.568L205.512 50.464C204.6 49.952 203.688 49.624 202.776 49.48C201.88 49.32 201.056 49.296 200.304 49.408C199.552 49.52 198.944 49.736 198.48 50.056C198.032 50.376 197.808 50.76 197.808 51.208C197.808 51.944 198.144 52.496 198.816 52.864C199.504 53.232 200.432 53.456 201.6 53.536C202.768 53.616 204.088 53.608 205.56 53.512C205.4 53.752 205.248 54.056 205.104 54.424C204.976 54.776 204.864 55.128 204.768 55.48C204.672 55.832 204.616 56.128 204.6 56.368ZM221.664 56.296C220.304 56.248 219.248 55.872 218.496 55.168C217.744 54.464 217.376 53.592 217.392 52.552C217.408 51.864 217.632 51.248 218.064 50.704C218.496 50.16 219.096 49.736 219.864 49.432C220.632 49.128 221.52 49 222.528 49.048C222.8 49.048 223.056 49.064 223.296 49.096C223.552 49.112 223.808 49.136 224.064 49.168L223.992 46.408C223.72 46.424 223.44 46.432 223.152 46.432C222.88 46.432 222.608 46.432 222.336 46.432C221.376 46.432 220.616 46.36 220.056 46.216C219.512 46.056 219.072 45.8 218.736 45.448C218.416 45.08 218.096 44.576 217.776 43.936L220.032 42.808C220.256 43.24 220.52 43.52 220.824 43.648C221.128 43.76 221.648 43.816 222.384 43.816C222.624 43.816 222.872 43.816 223.128 43.816C223.4 43.8 223.672 43.784 223.944 43.768C223.928 43.336 223.912 42.896 223.896 42.448C223.896 42 223.888 41.56 223.872 41.128C222.704 41.192 221.6 41.24 220.56 41.272C219.52 41.288 218.712 41.288 218.136 41.272L218.016 38.584C218.576 38.632 219.384 38.656 220.44 38.656C221.496 38.64 222.624 38.608 223.824 38.56C223.808 37.984 223.8 37.432 223.8 36.904C223.8 36.376 223.8 35.888 223.8 35.44H226.584C226.584 35.872 226.584 36.336 226.584 36.832C226.584 37.328 226.592 37.848 226.608 38.392C227.696 38.312 228.696 38.224 229.608 38.128C230.52 38.016 231.192 37.904 231.624 37.792V40.432C231.192 40.528 230.52 40.624 229.608 40.72C228.712 40.8 227.72 40.88 226.632 40.96C226.648 41.392 226.656 41.832 226.656 42.28C226.672 42.712 226.688 43.144 226.704 43.576C227.648 43.48 228.544 43.368 229.392 43.24C230.24 43.096 230.912 42.944 231.408 42.784V45.592C230.816 45.72 230.112 45.84 229.296 45.952C228.496 46.064 227.648 46.16 226.752 46.24C226.784 46.88 226.8 47.496 226.8 48.088C226.816 48.68 226.832 49.232 226.848 49.744C228.032 50.064 229.152 50.48 230.208 50.992C231.264 51.504 232.256 52.064 233.184 52.672C232.976 52.832 232.744 53.072 232.488 53.392C232.248 53.696 232.024 54.008 231.816 54.328C231.608 54.648 231.448 54.92 231.336 55.144C229.992 54.008 228.52 53.112 226.92 52.456C226.904 53.656 226.48 54.608 225.648 55.312C224.832 56.032 223.504 56.36 221.664 56.296ZM221.76 53.728C222.592 53.76 223.192 53.64 223.56 53.368C223.928 53.096 224.112 52.736 224.112 52.288V51.616C223.776 51.552 223.44 51.504 223.104 51.472C222.784 51.44 222.464 51.424 222.144 51.424C221.472 51.424 220.96 51.536 220.608 51.76C220.256 51.984 220.08 52.256 220.08 52.576C220.08 53.296 220.64 53.68 221.76 53.728ZM245.304 56.656C245.112 56.336 244.856 55.952 244.536 55.504C244.216 55.056 243.848 54.672 243.432 54.352C245.128 53.872 246.432 53.32 247.344 52.696C248.256 52.056 248.888 51.304 249.24 50.44C248.728 50.696 248.216 50.824 247.704 50.824C246.488 50.824 245.504 50.48 244.752 49.792C244.016 49.104 243.624 48.176 243.576 47.008C243.544 46.208 243.704 45.496 244.056 44.872C244.408 44.232 244.904 43.728 245.544 43.36C246.184 42.992 246.912 42.808 247.728 42.808C247.856 42.808 247.968 42.816 248.064 42.832C248.16 42.832 248.264 42.84 248.376 42.856C248.344 42.568 248.312 42.272 248.28 41.968C248.248 41.664 248.232 41.344 248.232 41.008C246.936 41.056 245.672 41.128 244.44 41.224C243.208 41.32 242.08 41.432 241.056 41.56C240.032 41.672 239.184 41.808 238.512 41.968L238.104 39.184C238.68 39.136 239.488 39.088 240.528 39.04C241.568 38.976 242.752 38.912 244.08 38.848C245.424 38.784 246.808 38.72 248.232 38.656V35.272H251.016V38.536C252.264 38.488 253.456 38.448 254.592 38.416C255.728 38.368 256.744 38.336 257.64 38.32C258.536 38.288 259.24 38.28 259.752 38.296L259.56 41.104C258.632 40.992 257.4 40.928 255.864 40.912C254.344 40.88 252.728 40.88 251.016 40.912C251.016 41.488 251.032 42.072 251.064 42.664C251.112 43.256 251.152 43.824 251.184 44.368C251.968 45.296 252.36 46.528 252.36 48.064C252.36 50.192 251.744 51.984 250.512 53.44C249.28 54.88 247.544 55.952 245.304 56.656ZM247.728 48.424C248.176 48.392 248.528 48.24 248.784 47.968C249.04 47.696 249.168 47.344 249.168 46.912C249.168 46.768 249.152 46.616 249.12 46.456C249.104 46.28 249.08 46.096 249.048 45.904C248.712 45.52 248.288 45.328 247.776 45.328C247.328 45.328 246.952 45.472 246.648 45.76C246.344 46.048 246.2 46.416 246.216 46.864C246.216 47.328 246.352 47.712 246.624 48.016C246.912 48.304 247.28 48.44 247.728 48.424Z" fill="white"/>
<g clip-path="url(#clip0_49_6)">
<path d="M7.38109 4.99878L5.8876 6.28406L11.53 12.8846L13.0235 11.5993L7.38109 4.99878Z" fill="white"/>
<path d="M43 46.6931L16.8826 16.1224L15.3893 17.3974L41.5067 47.9798L43 46.6931Z" fill="white"/>
<path d="M34.9481 54.3606L1.09506 31.4576L0 33.0969L33.8531 56.0058L34.954 54.3665L34.9481 54.3606Z" fill="white"/>
</g>
<g clip-path="url(#clip1_49_6)">
<path d="M323.619 4.99878L325.112 6.28406L319.47 12.8846L317.977 11.5993L323.619 4.99878Z" fill="white"/>
<path d="M288 46.6931L314.117 16.1224L315.611 17.3974L289.493 47.9798L288 46.6931Z" fill="white"/>
<path d="M296.052 54.3606L329.905 31.4576L331 33.0969L297.147 56.0058L296.046 54.3665L296.052 54.3606Z" fill="white"/>
</g>
<defs>
<clipPath id="clip0_49_6">
<rect width="43" height="51" fill="white" transform="translate(0 5)"/>
</clipPath>
<clipPath id="clip1_49_6">
<rect width="43" height="51" fill="white" transform="matrix(-1 0 0 1 331 5)"/>
</clipPath>
</defs>
</svg>
