<svg width="663" height="51" viewBox="0 0 663 51" fill="none" xmlns="http://www.w3.org/2000/svg">
<path d="M82.9268 38.65C80.8468 38.75 78.9968 38.52 77.3768 37.96C75.7768 37.42 74.5168 36.6 73.5968 35.5C72.6968 34.4 72.2468 33.06 72.2468 31.48C72.2468 30.46 72.4568 29.52 72.8768 28.66C73.2968 27.8 73.8768 27.03 74.6168 26.35C73.2768 26.63 71.9668 26.93 70.6868 27.25C69.4068 27.57 68.2468 27.89 67.2068 28.21C66.1868 28.53 65.3668 28.84 64.7468 29.14L63.4268 25.78C63.6668 25.74 64.0268 25.67 64.5068 25.57C64.9868 25.47 65.6468 25.33 66.4868 25.15C67.2468 24.99 68.0868 24.59 69.0068 23.95C69.9268 23.31 70.8568 22.55 71.7968 21.67C72.7568 20.77 73.6468 19.84 74.4668 18.88C75.2868 17.9 75.9668 16.99 76.5068 16.15C75.7268 16.33 74.8768 16.51 73.9568 16.69C73.0568 16.87 72.1868 17.02 71.3468 17.14C70.5268 17.26 69.8368 17.34 69.2768 17.38L68.2268 14.05C68.9668 14.05 69.8368 14.01 70.8368 13.93C71.8368 13.83 72.8468 13.71 73.8668 13.57C74.8868 13.43 75.8268 13.26 76.6868 13.06C77.5468 12.86 78.2168 12.66 78.6968 12.46L81.6968 14.38C81.2768 15.24 80.6768 16.22 79.8968 17.32C79.1168 18.42 78.2068 19.52 77.1668 20.62C76.1468 21.72 75.0268 22.74 73.8068 23.68C75.3868 23.36 76.9368 23.04 78.4568 22.72C79.9968 22.4 81.3568 22.12 82.5368 21.88C83.7368 21.62 84.6168 21.44 85.1768 21.34L85.7468 24.82C85.3668 24.82 84.9068 24.84 84.3668 24.88C83.8268 24.92 83.2368 24.99 82.5968 25.09C81.4368 25.23 80.3468 25.56 79.3268 26.08C78.3268 26.58 77.5068 27.27 76.8668 28.15C76.2468 29.03 75.9368 30.09 75.9368 31.33C75.9368 32.23 76.2868 32.97 76.9868 33.55C77.6868 34.13 78.6568 34.54 79.8968 34.78C81.1368 35 82.5468 35.05 84.1268 34.93C83.8068 35.43 83.5368 36.05 83.3168 36.79C83.0968 37.53 82.9668 38.15 82.9268 38.65ZM107.527 37.27C107.447 36.95 107.297 36.57 107.077 36.13C106.857 35.69 106.597 35.27 106.297 34.87C106.017 34.45 105.737 34.11 105.457 33.85C108.197 33.43 110.277 32.54 111.697 31.18C113.137 29.8 113.897 28.18 113.977 26.32C114.057 24.84 113.787 23.52 113.167 22.36C112.547 21.2 111.697 20.26 110.617 19.54C109.557 18.82 108.387 18.39 107.107 18.25C106.947 20.11 106.647 22.01 106.207 23.95C105.767 25.89 105.167 27.71 104.407 29.41C103.667 31.11 102.757 32.55 101.677 33.73C100.857 34.61 100.057 35.12 99.2768 35.26C98.5168 35.4 97.7068 35.29 96.8468 34.93C96.0068 34.57 95.2668 34 94.6268 33.22C93.9868 32.44 93.4968 31.52 93.1568 30.46C92.8168 29.38 92.6768 28.23 92.7368 27.01C92.8368 25.19 93.2668 23.53 94.0268 22.03C94.7868 20.51 95.8068 19.2 97.0868 18.1C98.3668 17 99.8368 16.17 101.497 15.61C103.157 15.05 104.927 14.82 106.807 14.92C108.327 15 109.757 15.34 111.097 15.94C112.437 16.54 113.607 17.37 114.607 18.43C115.627 19.47 116.407 20.68 116.947 22.06C117.507 23.44 117.737 24.95 117.637 26.59C117.497 29.33 116.537 31.63 114.757 33.49C112.977 35.33 110.567 36.59 107.527 37.27ZM97.7768 31.21C97.9968 31.37 98.2268 31.45 98.4668 31.45C98.7068 31.45 98.9468 31.33 99.1868 31.09C99.9068 30.37 100.567 29.35 101.167 28.03C101.787 26.71 102.297 25.22 102.697 23.56C103.117 21.9 103.387 20.21 103.507 18.49C102.127 18.81 100.897 19.39 99.8168 20.23C98.7568 21.07 97.9168 22.09 97.2968 23.29C96.6768 24.47 96.3268 25.77 96.2468 27.19C96.2068 28.13 96.3268 28.95 96.6068 29.65C96.9068 30.33 97.2968 30.85 97.7768 31.21ZM130.867 37.93C129.387 38.11 128.077 38.04 126.937 37.72C125.797 37.42 124.907 36.91 124.267 36.19C123.627 35.47 123.307 34.57 123.307 33.49C123.307 32.07 123.877 30.68 125.017 29.32C126.177 27.94 127.767 26.82 129.787 25.96V21.43C128.687 21.51 127.617 21.57 126.577 21.61C125.557 21.65 124.607 21.65 123.727 21.61L123.547 18.16C124.307 18.24 125.237 18.27 126.337 18.25C127.437 18.21 128.587 18.13 129.787 18.01V13.18L133.117 13.21V17.62C134.117 17.46 135.047 17.29 135.907 17.11C136.787 16.91 137.507 16.7 138.067 16.48L138.427 19.78C137.727 20.04 136.917 20.27 135.997 20.47C135.077 20.67 134.117 20.85 133.117 21.01V24.94C133.817 24.78 134.547 24.66 135.307 24.58C136.067 24.5 136.857 24.46 137.677 24.46C139.597 24.46 141.227 24.76 142.567 25.36C143.927 25.94 144.957 26.73 145.657 27.73C146.357 28.71 146.707 29.82 146.707 31.06C146.707 32.98 146.127 34.49 144.967 35.59C143.807 36.69 142.237 37.23 140.257 37.21C138.717 37.21 137.417 36.83 136.357 36.07C135.317 35.29 134.567 34.14 134.107 32.62C134.567 32.48 135.127 32.27 135.787 31.99C136.447 31.69 136.967 31.41 137.347 31.15C137.847 32.81 138.807 33.64 140.227 33.64C141.107 33.64 141.777 33.39 142.237 32.89C142.697 32.37 142.927 31.73 142.927 30.97C142.927 29.99 142.487 29.18 141.607 28.54C140.727 27.88 139.407 27.55 137.647 27.55C136.047 27.55 134.537 27.75 133.117 28.15V35.62C133.117 36.36 132.947 36.9 132.607 37.24C132.267 37.6 131.687 37.83 130.867 37.93ZM146.137 24.04C145.657 23.56 145.007 23.04 144.187 22.48C143.367 21.9 142.527 21.36 141.667 20.86C140.807 20.34 140.037 19.95 139.357 19.69L141.247 16.99C141.967 17.27 142.757 17.65 143.617 18.13C144.477 18.61 145.317 19.12 146.137 19.66C146.957 20.2 147.647 20.72 148.207 21.22C148.007 21.44 147.757 21.74 147.457 22.12C147.177 22.5 146.907 22.87 146.647 23.23C146.407 23.59 146.237 23.86 146.137 24.04ZM128.707 34.75C129.087 34.77 129.357 34.73 129.517 34.63C129.697 34.53 129.787 34.35 129.787 34.09V29.5C128.867 30.06 128.137 30.67 127.597 31.33C127.057 31.99 126.787 32.65 126.787 33.31C126.787 33.77 126.957 34.12 127.297 34.36C127.637 34.6 128.107 34.73 128.707 34.75ZM161.347 38.77V23.08H164.647V25.12L166.387 23.35C166.847 23.69 167.357 24.11 167.917 24.61C168.477 25.09 169.057 25.62 169.657 26.2C170.097 25.52 170.487 24.85 170.827 24.19C171.167 23.53 171.437 22.91 171.637 22.33L174.577 23.53C174.257 24.33 173.867 25.15 173.407 25.99C172.947 26.81 172.447 27.63 171.907 28.45C172.487 29.03 173.017 29.6 173.497 30.16C173.997 30.72 174.427 31.23 174.787 31.69V23.02H178.027V38.77H161.347ZM155.077 39.22V11.89H158.437V17.98L160.507 17.08C160.747 17.44 161.027 17.94 161.347 18.58C161.687 19.22 161.997 19.85 162.277 20.47C162.557 21.07 162.757 21.53 162.877 21.85L160.207 23.05C160.107 22.73 159.947 22.33 159.727 21.85C159.527 21.35 159.307 20.84 159.067 20.32C158.847 19.78 158.637 19.3 158.437 18.88V39.22H155.077ZM174.457 22.03C174.237 21.89 173.937 21.74 173.557 21.58C173.197 21.4 172.837 21.24 172.477 21.1C172.117 20.94 171.807 20.83 171.547 20.77C171.847 20.31 172.177 19.74 172.537 19.06C172.897 18.36 173.247 17.62 173.587 16.84C173.927 16.06 174.237 15.3 174.517 14.56C174.797 13.8 175.007 13.15 175.147 12.61L178.567 13.75C178.307 14.53 177.937 15.44 177.457 16.48C176.997 17.5 176.497 18.51 175.957 19.51C175.437 20.49 174.937 21.33 174.457 22.03ZM164.647 35.77H174.787V32.32C174.447 32.58 174.057 32.91 173.617 33.31C173.177 33.69 172.847 34 172.627 34.24C172.307 33.8 171.917 33.31 171.457 32.77C171.017 32.21 170.527 31.64 169.987 31.06C169.387 31.8 168.767 32.49 168.127 33.13C167.507 33.75 166.907 34.27 166.327 34.69C166.147 34.49 165.897 34.24 165.577 33.94C165.277 33.64 164.967 33.36 164.647 33.1V35.77ZM153.457 26.86C153.237 26.76 152.947 26.65 152.587 26.53C152.247 26.41 151.897 26.3 151.537 26.2C151.177 26.1 150.887 26.03 150.667 25.99C150.807 25.55 150.947 24.99 151.087 24.31C151.227 23.61 151.347 22.87 151.447 22.09C151.567 21.31 151.667 20.57 151.747 19.87C151.827 19.15 151.867 18.55 151.867 18.07L154.807 18.4C154.787 19.08 154.727 19.84 154.627 20.68C154.527 21.52 154.407 22.35 154.267 23.17C154.127 23.99 153.977 24.73 153.817 25.39C153.677 26.05 153.557 26.54 153.457 26.86ZM164.017 20.98C163.697 19.92 163.257 18.79 162.697 17.59C162.157 16.39 161.607 15.36 161.047 14.5L164.017 13.21C164.377 13.77 164.747 14.43 165.127 15.19C165.507 15.93 165.867 16.7 166.207 17.5C166.567 18.3 166.857 19.05 167.077 19.75C166.797 19.83 166.457 19.95 166.057 20.11C165.657 20.25 165.267 20.4 164.887 20.56C164.507 20.72 164.217 20.86 164.017 20.98ZM168.487 19.57C168.287 18.47 167.997 17.36 167.617 16.24C167.237 15.12 166.827 14.1 166.387 13.18L169.477 12.25C169.937 13.23 170.367 14.31 170.767 15.49C171.167 16.65 171.467 17.72 171.667 18.7C171.387 18.74 171.037 18.81 170.617 18.91C170.197 19.01 169.787 19.12 169.387 19.24C169.007 19.36 168.707 19.47 168.487 19.57ZM164.647 31.99C165.147 31.57 165.667 31.08 166.207 30.52C166.747 29.94 167.277 29.34 167.797 28.72C167.237 28.14 166.687 27.6 166.147 27.1C165.607 26.6 165.107 26.18 164.647 25.84V31.99ZM195.607 38.83C195.287 38.49 194.817 38.12 194.197 37.72C193.597 37.34 193.067 37.06 192.607 36.88C194.027 35.9 195.307 34.68 196.447 33.22C197.607 31.74 198.557 30.15 199.297 28.45C198.437 28.19 197.567 27.98 196.687 27.82C195.807 27.64 194.947 27.51 194.107 27.43C193.587 28.41 193.047 29.31 192.487 30.13C191.947 30.93 191.397 31.61 190.837 32.17C189.997 33.03 189.077 33.63 188.077 33.97C187.097 34.31 186.147 34.41 185.227 34.27C184.327 34.11 183.587 33.72 183.007 33.1C182.427 32.48 182.137 31.65 182.137 30.61C182.137 29.45 182.517 28.39 183.277 27.43C184.037 26.47 185.137 25.7 186.577 25.12C188.037 24.54 189.817 24.23 191.917 24.19C192.457 23.05 192.977 21.84 193.477 20.56C193.977 19.28 194.427 18.01 194.827 16.75C194.087 16.95 193.307 17.15 192.487 17.35C191.687 17.53 190.927 17.69 190.207 17.83C189.507 17.97 188.927 18.07 188.467 18.13L187.507 14.68C188.027 14.66 188.697 14.6 189.517 14.5C190.337 14.4 191.197 14.27 192.097 14.11C193.017 13.95 193.877 13.78 194.677 13.6C195.497 13.42 196.147 13.24 196.627 13.06L199.147 14.41C198.807 15.81 198.327 17.4 197.707 19.18C197.087 20.96 196.377 22.71 195.577 24.43C196.337 24.53 197.107 24.66 197.887 24.82C198.687 24.98 199.497 25.17 200.317 25.39C200.497 24.69 200.637 24 200.737 23.32C200.837 22.62 200.897 21.93 200.917 21.25L204.487 22.12C204.387 23.52 204.147 24.94 203.767 26.38C204.567 26.64 205.347 26.92 206.107 27.22C206.887 27.52 207.627 27.84 208.327 28.18C208.127 28.42 207.907 28.74 207.667 29.14C207.427 29.54 207.207 29.96 207.007 30.4C206.827 30.82 206.677 31.19 206.557 31.51C205.937 31.17 205.297 30.84 204.637 30.52C203.997 30.18 203.337 29.88 202.657 29.62C201.877 31.44 200.887 33.16 199.687 34.78C198.487 36.38 197.127 37.73 195.607 38.83ZM185.287 30.19C185.327 30.45 185.497 30.66 185.797 30.82C186.097 30.96 186.467 30.98 186.907 30.88C187.367 30.78 187.857 30.48 188.377 29.98C188.657 29.7 188.957 29.34 189.277 28.9C189.597 28.46 189.917 27.96 190.237 27.4C188.537 27.58 187.267 27.95 186.427 28.51C185.587 29.05 185.207 29.61 185.287 30.19ZM217.567 38.74C217.187 38.1 216.677 37.41 216.037 36.67C215.417 35.93 214.757 35.23 214.057 34.57C213.377 33.89 212.727 33.33 212.107 32.89L214.387 30.82C214.847 31.12 215.347 31.51 215.887 31.99C216.427 32.45 216.977 32.95 217.537 33.49C218.097 34.01 218.607 34.52 219.067 35.02C219.547 35.52 219.937 35.96 220.237 36.34L217.567 38.74ZM242.347 37V16H251.947C253.907 16 255.457 16.46 256.597 17.38C257.757 18.3 258.337 19.85 258.337 22.03C258.337 24.21 257.757 25.77 256.597 26.71C255.457 27.65 253.907 28.12 251.947 28.12H245.797V37H242.347ZM245.797 24.88H251.467C252.487 24.88 253.277 24.66 253.837 24.22C254.397 23.78 254.677 23.05 254.677 22.03C254.677 21.03 254.397 20.31 253.837 19.87C253.277 19.43 252.487 19.21 251.467 19.21H245.797V24.88ZM261.453 37V22.57H264.813V37H261.453ZM263.103 20.2C262.523 20.2 262.023 19.99 261.603 19.57C261.183 19.15 260.973 18.65 260.973 18.07C260.973 17.49 261.183 16.99 261.603 16.57C262.023 16.15 262.523 15.94 263.103 15.94C263.683 15.94 264.183 16.15 264.603 16.57C265.023 16.99 265.233 17.49 265.233 18.07C265.233 18.65 265.023 19.15 264.603 19.57C264.183 19.99 263.683 20.2 263.103 20.2ZM274.793 37.33C273.373 37.33 272.283 37.07 271.523 36.55C270.783 36.03 270.413 34.99 270.413 33.43V25.48H267.653V22.57H270.413V17.5H273.773V22.57H277.763V25.48H273.773V32.56C273.773 33.24 273.933 33.7 274.253 33.94C274.593 34.18 275.073 34.3 275.693 34.3C276.073 34.3 276.453 34.24 276.833 34.12C277.233 34 277.543 33.88 277.763 33.76V36.85C277.403 36.99 276.953 37.1 276.413 37.18C275.873 37.28 275.333 37.33 274.793 37.33ZM286.336 37.33C284.916 37.33 283.826 37.07 283.066 36.55C282.326 36.03 281.956 34.99 281.956 33.43V25.48H279.196V22.57H281.956V17.5H285.316V22.57H289.306V25.48H285.316V32.56C285.316 33.24 285.476 33.7 285.796 33.94C286.136 34.18 286.616 34.3 287.236 34.3C287.616 34.3 287.996 34.24 288.376 34.12C288.776 34 289.086 33.88 289.306 33.76V36.85C288.946 36.99 288.496 37.1 287.956 37.18C287.416 37.28 286.876 37.33 286.336 37.33ZM298.269 37.33C296.169 37.33 294.469 36.7 293.169 35.44C291.869 34.16 291.219 32.27 291.219 29.77C291.219 28.21 291.509 26.87 292.089 25.75C292.669 24.61 293.479 23.74 294.519 23.14C295.559 22.52 296.749 22.21 298.089 22.21C299.429 22.21 300.569 22.54 301.509 23.2C302.449 23.84 303.169 24.72 303.669 25.84C304.169 26.96 304.419 28.22 304.419 29.62V30.4H294.549C294.629 31.84 295.009 32.87 295.689 33.49C296.369 34.09 297.249 34.39 298.329 34.39C299.269 34.39 300.039 34.17 300.639 33.73C301.239 33.27 301.759 32.59 302.199 31.69L304.689 33.43C303.949 34.81 303.039 35.81 301.959 36.43C300.899 37.03 299.669 37.33 298.269 37.33ZM294.699 27.79H301.089C300.929 26.85 300.579 26.13 300.039 25.63C299.519 25.11 298.849 24.85 298.029 24.85C297.149 24.85 296.419 25.09 295.839 25.57C295.279 26.05 294.899 26.79 294.699 27.79ZM319.823 38.83C318.283 38.75 317.073 38.27 316.193 37.39C315.313 36.51 314.883 35.44 314.903 34.18C314.923 33 315.433 32.01 316.433 31.21C317.453 30.41 318.873 30.04 320.693 30.1C320.973 30.12 321.253 30.14 321.533 30.16C321.813 30.16 322.083 30.18 322.343 30.22V23.41H325.763V31.03C326.903 31.41 327.983 31.9 329.003 32.5C330.043 33.1 331.043 33.78 332.003 34.54C331.643 34.86 331.253 35.32 330.833 35.92C330.433 36.52 330.133 37.05 329.933 37.51C329.293 36.93 328.623 36.39 327.923 35.89C327.223 35.37 326.493 34.92 325.733 34.54C325.533 37.58 323.563 39.01 319.823 38.83ZM311.543 33.58C311.223 33.3 310.763 32.98 310.163 32.62C309.563 32.26 309.013 31.99 308.513 31.81C309.753 30.39 310.863 28.73 311.843 26.83C312.823 24.91 313.633 22.92 314.273 20.86C313.273 21 312.343 21.12 311.483 21.22C310.623 21.32 309.933 21.39 309.413 21.43L308.963 18.1C309.663 18.1 310.563 18.05 311.663 17.95C312.783 17.85 313.953 17.71 315.173 17.53C315.393 16.59 315.563 15.67 315.683 14.77C315.803 13.85 315.883 12.96 315.923 12.1L319.253 12.58C319.093 14.08 318.883 15.54 318.623 16.96C319.323 16.82 319.993 16.68 320.633 16.54C321.293 16.38 321.883 16.23 322.403 16.09L322.853 19.24C322.233 19.42 321.483 19.6 320.603 19.78C319.743 19.96 318.823 20.13 317.843 20.29C317.163 22.81 316.283 25.19 315.203 27.43C314.123 29.67 312.903 31.72 311.543 33.58ZM330.593 24.01C330.273 23.67 329.843 23.29 329.303 22.87C328.763 22.45 328.183 22.03 327.563 21.61C326.943 21.19 326.323 20.81 325.703 20.47C325.103 20.13 324.573 19.88 324.113 19.72L325.883 17.08C326.363 17.28 326.923 17.55 327.563 17.89C328.203 18.21 328.853 18.58 329.513 19C330.173 19.4 330.783 19.8 331.343 20.2C331.903 20.6 332.363 20.97 332.723 21.31L330.593 24.01ZM320.093 35.83C320.853 35.83 321.413 35.66 321.773 35.32C322.153 34.96 322.343 34.34 322.343 33.46V33.25C321.723 33.11 321.083 33.02 320.423 32.98C319.743 32.96 319.193 33.07 318.773 33.31C318.373 33.55 318.163 33.89 318.143 34.33C318.123 34.77 318.283 35.13 318.623 35.41C318.963 35.69 319.453 35.83 320.093 35.83ZM348.473 38.59C348.413 38.29 348.293 37.91 348.113 37.45C347.953 36.99 347.753 36.53 347.513 36.07C347.273 35.61 347.033 35.25 346.793 34.99C349.993 35.07 352.433 34.69 354.113 33.85C355.813 33.01 356.663 31.82 356.663 30.28C356.663 29.38 356.303 28.68 355.583 28.18C354.863 27.68 353.923 27.43 352.763 27.43C351.863 27.43 350.903 27.57 349.883 27.85C348.863 28.11 347.893 28.55 346.973 29.17C346.073 29.77 345.313 30.58 344.693 31.6L341.483 30.19C341.883 29.49 342.223 28.62 342.503 27.58C342.803 26.52 343.043 25.42 343.223 24.28C343.403 23.14 343.533 22.06 343.613 21.04C343.693 20.02 343.703 19.18 343.643 18.52L347.393 18.97C347.413 19.95 347.333 21.11 347.153 22.45C346.973 23.77 346.693 25.08 346.313 26.38C347.373 25.68 348.483 25.14 349.643 24.76C350.803 24.38 351.893 24.19 352.913 24.19C354.473 24.19 355.823 24.46 356.963 25C358.123 25.52 359.023 26.25 359.663 27.19C360.303 28.11 360.623 29.17 360.623 30.37C360.623 31.89 360.183 33.26 359.303 34.48C358.443 35.68 357.113 36.64 355.313 37.36C353.533 38.08 351.253 38.49 348.473 38.59ZM353.453 19.36C352.953 18.96 352.353 18.56 351.653 18.16C350.973 17.76 350.253 17.38 349.493 17.02C348.733 16.66 347.983 16.35 347.243 16.09C346.523 15.81 345.883 15.62 345.323 15.52L347.123 12.4C347.643 12.54 348.263 12.76 348.983 13.06C349.703 13.34 350.453 13.66 351.233 14.02C352.033 14.38 352.783 14.74 353.483 15.1C354.203 15.46 354.793 15.79 355.253 16.09L353.453 19.36ZM368.513 38.47V35.23H378.923V31.96H371.723V28.69H378.923V25.87H371.843V23.89C371.263 24.27 370.673 24.64 370.073 25C369.473 25.34 368.883 25.66 368.303 25.96C368.063 25.54 367.723 25.04 367.283 24.46C366.843 23.86 366.433 23.39 366.053 23.05C367.313 22.51 368.583 21.83 369.863 21.01C371.163 20.19 372.403 19.27 373.583 18.25C374.783 17.23 375.863 16.16 376.823 15.04C377.783 13.92 378.563 12.81 379.163 11.71L382.553 12.19C383.213 13.23 384.033 14.26 385.013 15.28C385.993 16.3 387.063 17.26 388.223 18.16C389.403 19.06 390.613 19.87 391.853 20.59C393.093 21.31 394.313 21.9 395.513 22.36C395.133 22.72 394.723 23.22 394.283 23.86C393.843 24.48 393.493 25.06 393.233 25.6C392.653 25.32 392.063 25.02 391.463 24.7C390.863 24.36 390.253 24 389.633 23.62V25.87H382.703V28.69H389.813V31.96H382.703V35.23H393.113V38.47H368.513ZM373.733 22.54H388.043C386.623 21.54 385.273 20.44 383.993 19.24C382.713 18.02 381.643 16.77 380.783 15.49C379.943 16.71 378.913 17.93 377.693 19.15C376.473 20.35 375.153 21.48 373.733 22.54ZM417.893 38.17C415.813 37.93 413.973 37.33 412.373 36.37C410.773 35.39 409.523 34.12 408.623 32.56C407.723 30.98 407.273 29.19 407.273 27.19C407.273 25.75 407.623 24.29 408.323 22.81C409.023 21.31 410.053 19.98 411.413 18.82C409.813 19.08 408.223 19.36 406.643 19.66C405.063 19.94 403.623 20.21 402.323 20.47C401.043 20.73 400.053 20.96 399.353 21.16L398.543 17.26C399.203 17.22 400.113 17.13 401.273 16.99C402.453 16.85 403.773 16.68 405.233 16.48C406.713 16.26 408.233 16.03 409.793 15.79C411.373 15.53 412.893 15.27 414.353 15.01C415.833 14.75 417.153 14.5 418.313 14.26C419.493 14 420.413 13.77 421.073 13.57L422.033 17.23C421.733 17.25 421.353 17.3 420.893 17.38C420.453 17.44 419.943 17.51 419.363 17.59C418.283 17.73 417.233 18.07 416.213 18.61C415.213 19.15 414.313 19.85 413.513 20.71C412.733 21.55 412.113 22.52 411.653 23.62C411.193 24.72 410.963 25.91 410.963 27.19C410.963 28.71 411.353 29.98 412.133 31C412.913 32.02 413.973 32.82 415.313 33.4C416.673 33.96 418.193 34.34 419.873 34.54C419.573 34.86 419.283 35.25 419.003 35.71C418.723 36.15 418.483 36.59 418.283 37.03C418.083 37.49 417.953 37.87 417.893 38.17ZM428.783 39.22C428.523 39 428.113 38.74 427.553 38.44C427.013 38.14 426.563 37.93 426.203 37.81C426.843 37.01 427.353 36.19 427.733 35.35C428.133 34.51 428.423 33.54 428.603 32.44C428.783 31.34 428.873 30.04 428.873 28.54V21.4C428.533 21.14 428.103 20.83 427.583 20.47C427.063 20.11 426.603 19.84 426.203 19.66C426.743 19.2 427.263 18.63 427.763 17.95C428.263 17.27 428.723 16.55 429.143 15.79C429.583 15.03 429.963 14.29 430.283 13.57C430.603 12.85 430.853 12.22 431.033 11.68L434.393 12.4C434.313 12.62 434.213 12.85 434.093 13.09C433.993 13.33 433.893 13.58 433.793 13.84H438.593L439.523 14.89C439.263 15.45 438.933 16.08 438.533 16.78C438.133 17.48 437.733 18.16 437.333 18.82H440.513V20.11C441.433 19.59 442.223 18.91 442.883 18.07C443.563 17.23 444.043 16.31 444.323 15.31H441.083V12.61H454.103C454.023 14.49 453.883 16.03 453.683 17.23C453.503 18.43 453.233 19.36 452.873 20.02C452.533 20.68 452.083 21.14 451.523 21.4C450.983 21.66 450.323 21.79 449.543 21.79H447.563C447.543 21.53 447.493 21.21 447.413 20.83C447.353 20.43 447.273 20.05 447.173 19.69C447.093 19.31 447.003 19.01 446.903 18.79H448.523C449.003 18.79 449.383 18.73 449.663 18.61C449.943 18.47 450.153 18.15 450.293 17.65C450.453 17.15 450.563 16.37 450.623 15.31H447.683C447.303 16.83 446.643 18.22 445.703 19.48C444.783 20.72 443.613 21.78 442.193 22.66C442.013 22.42 441.763 22.12 441.443 21.76C441.123 21.4 440.813 21.08 440.513 20.8V27.61C441.033 26.85 441.513 25.97 441.953 24.97C442.393 23.97 442.723 23.06 442.943 22.24L445.853 23.02C445.773 23.28 445.683 23.56 445.583 23.86C445.483 24.16 445.373 24.47 445.253 24.79H446.633V22.3H449.813V24.79H453.893V27.58H449.813V30.19H454.583V32.98H449.813V39.19H446.633V32.98H441.353V30.19H446.633V27.58H443.933C443.733 27.98 443.513 28.37 443.273 28.75C443.053 29.11 442.833 29.43 442.613 29.71C442.393 29.55 442.073 29.36 441.653 29.14C441.233 28.92 440.853 28.74 440.513 28.6V36.58C440.513 38.28 439.493 39.13 437.453 39.13H435.473C435.453 38.87 435.403 38.55 435.323 38.17C435.263 37.79 435.193 37.41 435.113 37.03C435.033 36.67 434.943 36.39 434.843 36.19H436.733C437.073 36.19 437.313 36.13 437.453 36.01C437.613 35.89 437.693 35.67 437.693 35.35V31.33H431.603C431.463 32.97 431.163 34.43 430.703 35.71C430.243 36.99 429.603 38.16 428.783 39.22ZM431.033 18.82H433.913C434.133 18.42 434.353 18.01 434.573 17.59C434.813 17.17 434.993 16.81 435.113 16.51H432.413C432.213 16.91 431.993 17.3 431.753 17.68C431.513 18.06 431.273 18.44 431.033 18.82ZM431.723 28.6H433.403V26.35H431.723V28.6ZM436.013 28.6H437.693V26.35H436.013V28.6ZM431.723 23.86H433.403V21.61H431.723V23.86ZM436.013 23.86H437.693V21.61H436.013V23.86ZM464.393 39.49C464.173 39.03 463.883 38.52 463.523 37.96C463.183 37.4 462.803 36.91 462.383 36.49C464.683 35.73 466.503 34.65 467.843 33.25C469.183 31.83 470.113 30.06 470.633 27.94H463.823V24.73H471.113C471.133 24.45 471.143 24.16 471.143 23.86C471.163 23.56 471.173 23.26 471.173 22.96V19.84H465.623V16.75H471.173V11.77H474.713V16.75H481.913V24.73H484.553V27.94H475.823C476.703 29.8 477.923 31.44 479.483 32.86C481.063 34.28 482.883 35.36 484.943 36.1C484.683 36.36 484.403 36.69 484.103 37.09C483.823 37.49 483.553 37.89 483.293 38.29C483.053 38.69 482.873 39.03 482.753 39.31C480.653 38.31 478.833 37.07 477.293 35.59C475.753 34.09 474.493 32.31 473.513 30.25C472.753 32.33 471.613 34.16 470.093 35.74C468.593 37.3 466.693 38.55 464.393 39.49ZM460.103 39.01L457.043 36.82C457.503 36.22 457.973 35.51 458.453 34.69C458.933 33.87 459.393 33.02 459.833 32.14C460.293 31.24 460.703 30.36 461.063 29.5C461.443 28.64 461.733 27.87 461.933 27.19C462.093 27.37 462.343 27.6 462.683 27.88C463.043 28.16 463.413 28.43 463.793 28.69C464.173 28.95 464.493 29.16 464.753 29.32C464.533 30.02 464.243 30.81 463.883 31.69C463.523 32.55 463.123 33.43 462.683 34.33C462.243 35.23 461.803 36.09 461.363 36.91C460.923 37.71 460.503 38.41 460.103 39.01ZM461.453 25.03C461.093 24.71 460.593 24.33 459.953 23.89C459.333 23.45 458.683 23.03 458.003 22.63C457.323 22.21 456.723 21.89 456.203 21.67L457.973 18.79C458.853 19.21 459.803 19.72 460.823 20.32C461.863 20.9 462.733 21.48 463.433 22.06C463.273 22.24 463.053 22.53 462.773 22.93C462.513 23.31 462.253 23.7 461.993 24.1C461.753 24.48 461.573 24.79 461.453 25.03ZM463.493 18.4C463.153 18.08 462.663 17.7 462.023 17.26C461.403 16.82 460.743 16.4 460.043 16C459.363 15.6 458.763 15.29 458.243 15.07L460.073 12.25C460.613 12.47 461.233 12.78 461.933 13.18C462.633 13.58 463.313 13.99 463.973 14.41C464.633 14.83 465.153 15.2 465.533 15.52C465.373 15.7 465.153 15.98 464.873 16.36C464.593 16.74 464.323 17.12 464.063 17.5C463.803 17.88 463.613 18.18 463.493 18.4ZM474.653 24.73H478.313V19.84H474.713V22.96C474.713 23.26 474.703 23.56 474.683 23.86C474.683 24.16 474.673 24.45 474.653 24.73ZM507.653 38.17C505.573 37.93 503.733 37.32 502.133 36.34C500.533 35.36 499.283 34.09 498.383 32.53C497.503 30.97 497.063 29.19 497.063 27.19C497.063 25.75 497.403 24.28 498.083 22.78C498.783 21.28 499.823 19.95 501.203 18.79C499.603 19.05 498.003 19.33 496.403 19.63C494.823 19.93 493.383 20.21 492.083 20.47C490.803 20.73 489.813 20.95 489.113 21.13L488.303 17.26C488.963 17.22 489.873 17.13 491.033 16.99C492.213 16.85 493.533 16.68 494.993 16.48C496.473 16.26 497.993 16.03 499.553 15.79C501.133 15.53 502.653 15.27 504.113 15.01C505.593 14.75 506.913 14.5 508.073 14.26C509.253 14 510.173 13.77 510.833 13.57L511.793 17.23C511.473 17.25 511.083 17.29 510.623 17.35C510.183 17.41 509.683 17.48 509.123 17.56C508.023 17.7 506.973 18.04 505.973 18.58C504.973 19.12 504.073 19.82 503.273 20.68C502.493 21.54 501.873 22.52 501.413 23.62C500.953 24.72 500.723 25.91 500.723 27.19C500.723 28.73 501.113 30.01 501.893 31.03C502.673 32.05 503.733 32.85 505.073 33.43C506.433 33.99 507.953 34.37 509.633 34.57C509.333 34.87 509.043 35.25 508.763 35.71C508.483 36.15 508.243 36.59 508.043 37.03C507.843 37.49 507.713 37.87 507.653 38.17ZM512.873 24.4C512.493 23.78 511.983 23.12 511.343 22.42C510.723 21.72 510.153 21.16 509.633 20.74L511.253 19.39C511.553 19.63 511.913 19.98 512.333 20.44C512.773 20.9 513.203 21.37 513.623 21.85C514.043 22.31 514.363 22.71 514.583 23.05L512.873 24.4ZM510.173 26.68C509.793 26.04 509.293 25.37 508.673 24.67C508.053 23.97 507.483 23.4 506.963 22.96L508.613 21.64C508.913 21.88 509.273 22.23 509.693 22.69C510.113 23.15 510.523 23.62 510.923 24.1C511.343 24.58 511.663 24.98 511.883 25.3L510.173 26.68ZM535.283 38.71C532.843 38.83 530.703 38.71 528.863 38.35C527.023 38.01 525.593 37.37 524.573 36.43C523.573 35.47 523.073 34.16 523.073 32.5C523.073 31.54 523.333 30.7 523.853 29.98C524.373 29.24 525.083 28.64 525.983 28.18C526.883 27.72 527.913 27.41 529.073 27.25C530.253 27.09 531.493 27.09 532.793 27.25C532.473 26.83 532.163 26.39 531.863 25.93C531.563 25.47 531.273 25 530.993 24.52C529.113 24.84 527.273 25.1 525.473 25.3C523.693 25.48 522.163 25.56 520.883 25.54L520.193 22.36C521.313 22.4 522.693 22.35 524.333 22.21C525.973 22.05 527.663 21.83 529.403 21.55C528.983 20.69 528.603 19.84 528.263 19C527.063 19.16 525.893 19.29 524.753 19.39C523.633 19.49 522.653 19.55 521.813 19.57L521.123 16.45C521.943 16.47 522.873 16.45 523.913 16.39C524.973 16.31 526.053 16.2 527.153 16.06C526.713 14.76 526.413 13.64 526.253 12.7L529.793 12.28C529.893 13.18 530.153 14.27 530.573 15.55C531.693 15.35 532.753 15.13 533.753 14.89C534.773 14.63 535.623 14.37 536.303 14.11L537.203 17.17C536.543 17.41 535.733 17.64 534.773 17.86C533.813 18.08 532.783 18.29 531.683 18.49C531.843 18.89 532.013 19.3 532.193 19.72C532.393 20.12 532.593 20.52 532.793 20.92C534.253 20.62 535.583 20.3 536.783 19.96C538.003 19.6 538.963 19.24 539.663 18.88L540.833 21.85C540.093 22.21 539.163 22.56 538.043 22.9C536.943 23.24 535.743 23.55 534.443 23.83C535.083 24.87 535.753 25.84 536.453 26.74C537.173 27.62 537.903 28.36 538.643 28.96L536.423 31.33C535.283 30.69 534.143 30.28 533.003 30.1C531.883 29.9 530.853 29.87 529.913 30.01C528.973 30.15 528.213 30.42 527.633 30.82C527.073 31.22 526.793 31.7 526.793 32.26C526.793 33.18 527.213 33.87 528.053 34.33C528.913 34.79 530.073 35.07 531.533 35.17C532.993 35.27 534.643 35.26 536.483 35.14C536.283 35.44 536.093 35.82 535.913 36.28C535.753 36.72 535.613 37.16 535.493 37.6C535.373 38.04 535.303 38.41 535.283 38.71ZM556.613 38.62C554.913 38.56 553.593 38.09 552.653 37.21C551.713 36.33 551.253 35.24 551.273 33.94C551.293 33.08 551.573 32.31 552.113 31.63C552.653 30.95 553.403 30.42 554.363 30.04C555.323 29.66 556.433 29.5 557.693 29.56C558.033 29.56 558.353 29.58 558.653 29.62C558.973 29.64 559.293 29.67 559.613 29.71L559.523 26.26C559.183 26.28 558.833 26.29 558.473 26.29C558.133 26.29 557.793 26.29 557.453 26.29C556.253 26.29 555.303 26.2 554.603 26.02C553.923 25.82 553.373 25.5 552.953 25.06C552.553 24.6 552.153 23.97 551.753 23.17L554.573 21.76C554.853 22.3 555.183 22.65 555.563 22.81C555.943 22.95 556.593 23.02 557.513 23.02C557.813 23.02 558.123 23.02 558.443 23.02C558.783 23 559.123 22.98 559.463 22.96C559.443 22.42 559.423 21.87 559.403 21.31C559.403 20.75 559.393 20.2 559.373 19.66C557.913 19.74 556.533 19.8 555.233 19.84C553.933 19.86 552.923 19.86 552.203 19.84L552.053 16.48C552.753 16.54 553.763 16.57 555.083 16.57C556.403 16.55 557.813 16.51 559.313 16.45C559.293 15.73 559.283 15.04 559.283 14.38C559.283 13.72 559.283 13.11 559.283 12.55H562.763C562.763 13.09 562.763 13.67 562.763 14.29C562.763 14.91 562.773 15.56 562.793 16.24C564.153 16.14 565.403 16.03 566.543 15.91C567.683 15.77 568.523 15.63 569.063 15.49V18.79C568.523 18.91 567.683 19.03 566.543 19.15C565.423 19.25 564.183 19.35 562.823 19.45C562.843 19.99 562.853 20.54 562.853 21.1C562.873 21.64 562.893 22.18 562.913 22.72C564.093 22.6 565.213 22.46 566.273 22.3C567.333 22.12 568.173 21.93 568.793 21.73V25.24C568.053 25.4 567.173 25.55 566.153 25.69C565.153 25.83 564.093 25.95 562.973 26.05C563.013 26.85 563.033 27.62 563.033 28.36C563.053 29.1 563.073 29.79 563.093 30.43C564.573 30.83 565.973 31.35 567.293 31.99C568.613 32.63 569.853 33.33 571.013 34.09C570.753 34.29 570.463 34.59 570.143 34.99C569.843 35.37 569.563 35.76 569.303 36.16C569.043 36.56 568.843 36.9 568.703 37.18C567.023 35.76 565.183 34.64 563.183 33.82C563.163 35.32 562.633 36.51 561.593 37.39C560.573 38.29 558.913 38.7 556.613 38.62ZM556.733 35.41C557.773 35.45 558.523 35.3 558.983 34.96C559.443 34.62 559.673 34.17 559.673 33.61V32.77C559.253 32.69 558.833 32.63 558.413 32.59C558.013 32.55 557.613 32.53 557.213 32.53C556.373 32.53 555.733 32.67 555.293 32.95C554.853 33.23 554.633 33.57 554.633 33.97C554.633 34.87 555.333 35.35 556.733 35.41ZM586.163 39.07C585.923 38.67 585.603 38.19 585.203 37.63C584.803 37.07 584.343 36.59 583.823 36.19C585.943 35.59 587.573 34.9 588.713 34.12C589.853 33.32 590.643 32.38 591.083 31.3C590.443 31.62 589.803 31.78 589.163 31.78C587.643 31.78 586.413 31.35 585.473 30.49C584.553 29.63 584.063 28.47 584.003 27.01C583.963 26.01 584.163 25.12 584.603 24.34C585.043 23.54 585.663 22.91 586.463 22.45C587.263 21.99 588.173 21.76 589.193 21.76C589.353 21.76 589.493 21.77 589.613 21.79C589.733 21.79 589.863 21.8 590.003 21.82C589.963 21.46 589.923 21.09 589.883 20.71C589.843 20.33 589.823 19.93 589.823 19.51C588.203 19.57 586.623 19.66 585.083 19.78C583.543 19.9 582.133 20.04 580.853 20.2C579.573 20.34 578.513 20.51 577.673 20.71L577.163 17.23C577.883 17.17 578.893 17.11 580.193 17.05C581.493 16.97 582.973 16.89 584.633 16.81C586.313 16.73 588.043 16.65 589.823 16.57V12.34H593.303V16.42C594.863 16.36 596.353 16.31 597.773 16.27C599.193 16.21 600.463 16.17 601.583 16.15C602.703 16.11 603.583 16.1 604.223 16.12L603.983 19.63C602.823 19.49 601.283 19.41 599.363 19.39C597.463 19.35 595.443 19.35 593.303 19.39C593.303 20.11 593.323 20.84 593.363 21.58C593.423 22.32 593.473 23.03 593.513 23.71C594.493 24.87 594.983 26.41 594.983 28.33C594.983 30.99 594.213 33.23 592.673 35.05C591.133 36.85 588.963 38.19 586.163 39.07ZM589.193 28.78C589.753 28.74 590.193 28.55 590.513 28.21C590.833 27.87 590.993 27.43 590.993 26.89C590.993 26.71 590.973 26.52 590.933 26.32C590.913 26.1 590.883 25.87 590.843 25.63C590.423 25.15 589.893 24.91 589.253 24.91C588.693 24.91 588.223 25.09 587.843 25.45C587.463 25.81 587.283 26.27 587.303 26.83C587.303 27.41 587.473 27.89 587.813 28.27C588.173 28.63 588.633 28.8 589.193 28.78Z" fill="white"/>
<g clip-path="url(#clip0_49_5)">
<path d="M7.38106 -0.00125036L5.88757 1.28403L11.53 7.88456L13.0235 6.59928L7.38106 -0.00125036Z" fill="white"/>
<path d="M43 41.6931L16.8826 11.1225L15.3893 12.3975L41.5067 42.9798L43 41.6931Z" fill="white"/>
<path d="M34.9481 49.3606L1.09506 26.4576L0 28.0969L33.8531 51.0057L34.954 49.3665L34.9481 49.3606Z" fill="white"/>
</g>
<g clip-path="url(#clip1_49_5)">
<path d="M655.619 -0.00125036L657.112 1.28403L651.47 7.88456L649.977 6.59928L655.619 -0.00125036Z" fill="white"/>
<path d="M620 41.6931L646.117 11.1225L647.611 12.3975L621.493 42.9798L620 41.6931Z" fill="white"/>
<path d="M628.052 49.3606L661.905 26.4576L663 28.0969L629.147 51.0057L628.046 49.3665L628.052 49.3606Z" fill="white"/>
</g>
<defs>
<clipPath id="clip0_49_5">
<rect width="43" height="51" fill="white"/>
</clipPath>
<clipPath id="clip1_49_5">
<rect width="43" height="51" fill="white" transform="matrix(-1 0 0 1 663 0)"/>
</clipPath>
</defs>
</svg>
